<mxfile host="app.diagrams.net" modified="2023-06-12T15:00:48.519Z" agent="Mozilla/5.0 (Macintosh; Intel Mac OS X 10_15_7) AppleWebKit/537.36 (KHTML, like Gecko) Chrome/114.0.0.0 Safari/537.36" etag="bsw6jWWwLhajantt5DLY" version="21.3.8" type="github" pages="4">
  <diagram name="หน้า-1" id="nQztjj_OpEa8w2mE8C8P">
    <mxGraphModel dx="1146" dy="1011" grid="1" gridSize="10" guides="1" tooltips="1" connect="1" arrows="1" fold="1" page="1" pageScale="1" pageWidth="827" pageHeight="1169" math="0" shadow="0">
      <root>
        <mxCell id="0" />
        <mxCell id="1" parent="0" />
        <mxCell id="Mx8qGbrx650eS_pqwrDC-1" value="เริ่ม" style="ellipse;whiteSpace=wrap;html=1;" vertex="1" parent="1">
          <mxGeometry x="70" y="40" width="80" height="40" as="geometry" />
        </mxCell>
        <mxCell id="Mx8qGbrx650eS_pqwrDC-2" value="ตรวจสอบสิทธิ์การใช้งาน" style="rounded=1;whiteSpace=wrap;html=1;" vertex="1" parent="1">
          <mxGeometry x="40" y="120" width="140" height="30" as="geometry" />
        </mxCell>
        <mxCell id="Mx8qGbrx650eS_pqwrDC-3" value="" style="edgeStyle=orthogonalEdgeStyle;rounded=0;orthogonalLoop=1;jettySize=auto;html=1;" edge="1" parent="1" source="Mx8qGbrx650eS_pqwrDC-1" target="Mx8qGbrx650eS_pqwrDC-2">
          <mxGeometry relative="1" as="geometry" />
        </mxCell>
        <mxCell id="Mx8qGbrx650eS_pqwrDC-4" value="มี ?" style="rhombus;whiteSpace=wrap;html=1;" vertex="1" parent="1">
          <mxGeometry x="80" y="180" width="60" height="60" as="geometry" />
        </mxCell>
        <mxCell id="Mx8qGbrx650eS_pqwrDC-5" value="" style="edgeStyle=orthogonalEdgeStyle;rounded=0;orthogonalLoop=1;jettySize=auto;html=1;" edge="1" parent="1" source="Mx8qGbrx650eS_pqwrDC-2" target="Mx8qGbrx650eS_pqwrDC-4">
          <mxGeometry relative="1" as="geometry" />
        </mxCell>
        <mxCell id="Mx8qGbrx650eS_pqwrDC-6" style="edgeStyle=orthogonalEdgeStyle;rounded=0;orthogonalLoop=1;jettySize=auto;html=1;entryX=-0.022;entryY=0.676;entryDx=0;entryDy=0;entryPerimeter=0;" edge="1" parent="1" source="Mx8qGbrx650eS_pqwrDC-4" target="Mx8qGbrx650eS_pqwrDC-20">
          <mxGeometry relative="1" as="geometry">
            <Array as="points">
              <mxPoint x="110" y="644" />
            </Array>
            <mxPoint x="265" y="750" as="targetPoint" />
          </mxGeometry>
        </mxCell>
        <mxCell id="Mx8qGbrx650eS_pqwrDC-7" value="ไม่" style="edgeLabel;html=1;align=center;verticalAlign=middle;resizable=0;points=[];" vertex="1" connectable="0" parent="Mx8qGbrx650eS_pqwrDC-6">
          <mxGeometry x="-0.8925" y="1" relative="1" as="geometry">
            <mxPoint as="offset" />
          </mxGeometry>
        </mxCell>
        <mxCell id="Mx8qGbrx650eS_pqwrDC-8" value="ตรวจสอบ Account &lt;br&gt;สถานะการใช้งาน" style="rounded=1;whiteSpace=wrap;html=1;" vertex="1" parent="1">
          <mxGeometry x="256.35" y="189" width="170" height="40" as="geometry" />
        </mxCell>
        <mxCell id="Mx8qGbrx650eS_pqwrDC-9" value="" style="edgeStyle=orthogonalEdgeStyle;rounded=0;orthogonalLoop=1;jettySize=auto;html=1;" edge="1" parent="1" source="Mx8qGbrx650eS_pqwrDC-4" target="Mx8qGbrx650eS_pqwrDC-8">
          <mxGeometry relative="1" as="geometry">
            <Array as="points">
              <mxPoint x="220" y="210" />
              <mxPoint x="220" y="210" />
            </Array>
          </mxGeometry>
        </mxCell>
        <mxCell id="Mx8qGbrx650eS_pqwrDC-10" value="ใช่" style="edgeLabel;html=1;align=center;verticalAlign=middle;resizable=0;points=[];" vertex="1" connectable="0" parent="Mx8qGbrx650eS_pqwrDC-9">
          <mxGeometry x="-0.7797" y="-1" relative="1" as="geometry">
            <mxPoint as="offset" />
          </mxGeometry>
        </mxCell>
        <mxCell id="Mx8qGbrx650eS_pqwrDC-11" value="มีใน&lt;br&gt;ระบบ &lt;br&gt;?" style="rhombus;whiteSpace=wrap;html=1;" vertex="1" parent="1">
          <mxGeometry x="303.85" y="268" width="75" height="70" as="geometry" />
        </mxCell>
        <mxCell id="Mx8qGbrx650eS_pqwrDC-12" value="" style="edgeStyle=orthogonalEdgeStyle;rounded=0;orthogonalLoop=1;jettySize=auto;html=1;" edge="1" parent="1" source="Mx8qGbrx650eS_pqwrDC-8" target="Mx8qGbrx650eS_pqwrDC-11">
          <mxGeometry relative="1" as="geometry" />
        </mxCell>
        <mxCell id="Mx8qGbrx650eS_pqwrDC-13" value="status&lt;br style=&quot;border-color: var(--border-color);&quot;&gt;= 1 ?" style="rhombus;whiteSpace=wrap;html=1;" vertex="1" parent="1">
          <mxGeometry x="311.35" y="388" width="60" height="60" as="geometry" />
        </mxCell>
        <mxCell id="Mx8qGbrx650eS_pqwrDC-14" value="" style="edgeStyle=orthogonalEdgeStyle;rounded=0;orthogonalLoop=1;jettySize=auto;html=1;" edge="1" parent="1" source="Mx8qGbrx650eS_pqwrDC-11" target="Mx8qGbrx650eS_pqwrDC-13">
          <mxGeometry relative="1" as="geometry" />
        </mxCell>
        <mxCell id="Mx8qGbrx650eS_pqwrDC-15" value="ใช่" style="edgeLabel;html=1;align=center;verticalAlign=middle;resizable=0;points=[];" vertex="1" connectable="0" parent="Mx8qGbrx650eS_pqwrDC-14">
          <mxGeometry x="-0.3254" y="2" relative="1" as="geometry">
            <mxPoint x="-2" as="offset" />
          </mxGeometry>
        </mxCell>
        <mxCell id="Mx8qGbrx650eS_pqwrDC-16" value="Locked&lt;br style=&quot;border-color: var(--border-color);&quot;&gt;= 1 ?&amp;nbsp;" style="rhombus;whiteSpace=wrap;html=1;" vertex="1" parent="1">
          <mxGeometry x="311.35" y="518" width="60" height="60" as="geometry" />
        </mxCell>
        <mxCell id="Mx8qGbrx650eS_pqwrDC-17" value="" style="edgeStyle=orthogonalEdgeStyle;rounded=0;orthogonalLoop=1;jettySize=auto;html=1;" edge="1" parent="1" source="Mx8qGbrx650eS_pqwrDC-13" target="Mx8qGbrx650eS_pqwrDC-16">
          <mxGeometry relative="1" as="geometry" />
        </mxCell>
        <mxCell id="Mx8qGbrx650eS_pqwrDC-18" value="ไม่" style="edgeLabel;html=1;align=center;verticalAlign=middle;resizable=0;points=[];" vertex="1" connectable="0" parent="Mx8qGbrx650eS_pqwrDC-17">
          <mxGeometry x="-0.3745" relative="1" as="geometry">
            <mxPoint as="offset" />
          </mxGeometry>
        </mxCell>
        <mxCell id="Mx8qGbrx650eS_pqwrDC-19" style="edgeStyle=orthogonalEdgeStyle;rounded=0;orthogonalLoop=1;jettySize=auto;html=1;entryX=0;entryY=0.5;entryDx=0;entryDy=0;" edge="1" parent="1" source="Mx8qGbrx650eS_pqwrDC-20" target="Mx8qGbrx650eS_pqwrDC-64">
          <mxGeometry relative="1" as="geometry">
            <Array as="points">
              <mxPoint x="239" y="1120" />
            </Array>
          </mxGeometry>
        </mxCell>
        <mxCell id="Mx8qGbrx650eS_pqwrDC-20" value="" style="ellipse;whiteSpace=wrap;html=1;aspect=fixed;" vertex="1" parent="1">
          <mxGeometry x="213.75" y="610" width="50" height="50" as="geometry" />
        </mxCell>
        <mxCell id="Mx8qGbrx650eS_pqwrDC-21" style="edgeStyle=orthogonalEdgeStyle;rounded=0;orthogonalLoop=1;jettySize=auto;html=1;" edge="1" parent="1" source="Mx8qGbrx650eS_pqwrDC-22" target="Mx8qGbrx650eS_pqwrDC-20">
          <mxGeometry relative="1" as="geometry">
            <Array as="points">
              <mxPoint x="140" y="303" />
              <mxPoint x="140" y="630" />
            </Array>
          </mxGeometry>
        </mxCell>
        <mxCell id="Mx8qGbrx650eS_pqwrDC-22" value="rerturn Error Code&amp;nbsp;001&lt;span style=&quot;font-size: medium; text-align: start;&quot;&gt;&lt;/span&gt;" style="rounded=1;whiteSpace=wrap;html=1;" vertex="1" parent="1">
          <mxGeometry x="150" y="283" width="77.5" height="40" as="geometry" />
        </mxCell>
        <mxCell id="Mx8qGbrx650eS_pqwrDC-23" style="edgeStyle=orthogonalEdgeStyle;rounded=0;orthogonalLoop=1;jettySize=auto;html=1;" edge="1" parent="1" source="Mx8qGbrx650eS_pqwrDC-11" target="Mx8qGbrx650eS_pqwrDC-22">
          <mxGeometry relative="1" as="geometry">
            <mxPoint x="240.10000000000002" y="408" as="targetPoint" />
          </mxGeometry>
        </mxCell>
        <mxCell id="Mx8qGbrx650eS_pqwrDC-24" value="ไม่" style="edgeLabel;html=1;align=center;verticalAlign=middle;resizable=0;points=[];" vertex="1" connectable="0" parent="Mx8qGbrx650eS_pqwrDC-23">
          <mxGeometry x="-0.6573" y="2" relative="1" as="geometry">
            <mxPoint as="offset" />
          </mxGeometry>
        </mxCell>
        <mxCell id="Mx8qGbrx650eS_pqwrDC-25" style="edgeStyle=orthogonalEdgeStyle;rounded=0;orthogonalLoop=1;jettySize=auto;html=1;entryX=0.5;entryY=0;entryDx=0;entryDy=0;" edge="1" parent="1" source="Mx8qGbrx650eS_pqwrDC-26" target="Mx8qGbrx650eS_pqwrDC-20">
          <mxGeometry relative="1" as="geometry" />
        </mxCell>
        <mxCell id="Mx8qGbrx650eS_pqwrDC-26" value="rerturn Error Code&amp;nbsp;011&lt;span style=&quot;font-size: medium; text-align: start;&quot;&gt;&lt;/span&gt;" style="rounded=1;whiteSpace=wrap;html=1;" vertex="1" parent="1">
          <mxGeometry x="200" y="528" width="77.5" height="40" as="geometry" />
        </mxCell>
        <mxCell id="Mx8qGbrx650eS_pqwrDC-27" value="" style="edgeStyle=orthogonalEdgeStyle;rounded=0;orthogonalLoop=1;jettySize=auto;html=1;" edge="1" parent="1" source="Mx8qGbrx650eS_pqwrDC-16" target="Mx8qGbrx650eS_pqwrDC-26">
          <mxGeometry relative="1" as="geometry" />
        </mxCell>
        <mxCell id="Mx8qGbrx650eS_pqwrDC-28" value="ใช่" style="edgeLabel;html=1;align=center;verticalAlign=middle;resizable=0;points=[];" vertex="1" connectable="0" parent="Mx8qGbrx650eS_pqwrDC-27">
          <mxGeometry x="-0.4608" y="1" relative="1" as="geometry">
            <mxPoint as="offset" />
          </mxGeometry>
        </mxCell>
        <mxCell id="Mx8qGbrx650eS_pqwrDC-29" style="edgeStyle=orthogonalEdgeStyle;rounded=0;orthogonalLoop=1;jettySize=auto;html=1;" edge="1" parent="1" source="Mx8qGbrx650eS_pqwrDC-30" target="Mx8qGbrx650eS_pqwrDC-20">
          <mxGeometry relative="1" as="geometry">
            <mxPoint x="240" y="610" as="targetPoint" />
            <Array as="points">
              <mxPoint x="180" y="418" />
              <mxPoint x="180" y="620" />
            </Array>
          </mxGeometry>
        </mxCell>
        <mxCell id="Mx8qGbrx650eS_pqwrDC-30" value="rerturn Error Code&amp;nbsp;004&lt;span style=&quot;font-size: medium; text-align: start;&quot;&gt;&lt;/span&gt;" style="rounded=1;whiteSpace=wrap;html=1;" vertex="1" parent="1">
          <mxGeometry x="200" y="398" width="77.5" height="40" as="geometry" />
        </mxCell>
        <mxCell id="Mx8qGbrx650eS_pqwrDC-31" value="" style="edgeStyle=orthogonalEdgeStyle;rounded=0;orthogonalLoop=1;jettySize=auto;html=1;" edge="1" parent="1" source="Mx8qGbrx650eS_pqwrDC-13" target="Mx8qGbrx650eS_pqwrDC-30">
          <mxGeometry relative="1" as="geometry" />
        </mxCell>
        <mxCell id="Mx8qGbrx650eS_pqwrDC-32" value="ใช่" style="edgeLabel;html=1;align=center;verticalAlign=middle;resizable=0;points=[];" vertex="1" connectable="0" parent="Mx8qGbrx650eS_pqwrDC-31">
          <mxGeometry x="-0.4608" y="2" relative="1" as="geometry">
            <mxPoint as="offset" />
          </mxGeometry>
        </mxCell>
        <mxCell id="Mx8qGbrx650eS_pqwrDC-33" value="" style="edgeStyle=orthogonalEdgeStyle;rounded=0;orthogonalLoop=1;jettySize=auto;html=1;entryX=0.1;entryY=0.5;entryDx=0;entryDy=0;entryPerimeter=0;" edge="1" parent="1" source="Mx8qGbrx650eS_pqwrDC-16" target="Mx8qGbrx650eS_pqwrDC-38">
          <mxGeometry relative="1" as="geometry">
            <mxPoint x="414" y="548" as="targetPoint" />
          </mxGeometry>
        </mxCell>
        <mxCell id="Mx8qGbrx650eS_pqwrDC-34" value="" style="edgeStyle=orthogonalEdgeStyle;rounded=0;orthogonalLoop=1;jettySize=auto;html=1;" edge="1" parent="1" source="Mx8qGbrx650eS_pqwrDC-38">
          <mxGeometry relative="1" as="geometry">
            <mxPoint x="530" y="548" as="targetPoint" />
          </mxGeometry>
        </mxCell>
        <mxCell id="Mx8qGbrx650eS_pqwrDC-35" value="ไม่" style="edgeLabel;html=1;align=center;verticalAlign=middle;resizable=0;points=[];" vertex="1" connectable="0" parent="Mx8qGbrx650eS_pqwrDC-34">
          <mxGeometry x="-0.3115" y="3" relative="1" as="geometry">
            <mxPoint as="offset" />
          </mxGeometry>
        </mxCell>
        <mxCell id="Mx8qGbrx650eS_pqwrDC-36" style="edgeStyle=orthogonalEdgeStyle;rounded=0;orthogonalLoop=1;jettySize=auto;html=1;entryX=0.5;entryY=0;entryDx=0;entryDy=0;" edge="1" parent="1" source="Mx8qGbrx650eS_pqwrDC-38" target="Mx8qGbrx650eS_pqwrDC-61">
          <mxGeometry relative="1" as="geometry">
            <mxPoint x="447" y="940" as="targetPoint" />
          </mxGeometry>
        </mxCell>
        <mxCell id="Mx8qGbrx650eS_pqwrDC-37" value="ใช่" style="edgeLabel;html=1;align=center;verticalAlign=middle;resizable=0;points=[];" vertex="1" connectable="0" parent="Mx8qGbrx650eS_pqwrDC-36">
          <mxGeometry x="-0.3215" y="2" relative="1" as="geometry">
            <mxPoint as="offset" />
          </mxGeometry>
        </mxCell>
        <mxCell id="Mx8qGbrx650eS_pqwrDC-38" value="Super&lt;br&gt;Admin ?" style="rhombus;whiteSpace=wrap;html=1;" vertex="1" parent="1">
          <mxGeometry x="414" y="512" width="66" height="72" as="geometry" />
        </mxCell>
        <mxCell id="Mx8qGbrx650eS_pqwrDC-39" value="" style="edgeStyle=orthogonalEdgeStyle;rounded=0;orthogonalLoop=1;jettySize=auto;html=1;" edge="1" parent="1" source="Mx8qGbrx650eS_pqwrDC-40" target="Mx8qGbrx650eS_pqwrDC-45">
          <mxGeometry relative="1" as="geometry" />
        </mxCell>
        <mxCell id="Mx8qGbrx650eS_pqwrDC-40" value="ตรวจสอบสิทธิ์การใช้งาน Company นี้ไหม&lt;span style=&quot;font-size: medium; text-align: start;&quot;&gt;&lt;/span&gt;" style="rounded=1;whiteSpace=wrap;html=1;" vertex="1" parent="1">
          <mxGeometry x="530" y="528" width="110" height="42" as="geometry" />
        </mxCell>
        <mxCell id="Mx8qGbrx650eS_pqwrDC-41" value="" style="edgeStyle=orthogonalEdgeStyle;rounded=0;orthogonalLoop=1;jettySize=auto;html=1;" edge="1" parent="1" source="Mx8qGbrx650eS_pqwrDC-45" target="Mx8qGbrx650eS_pqwrDC-49">
          <mxGeometry relative="1" as="geometry" />
        </mxCell>
        <mxCell id="Mx8qGbrx650eS_pqwrDC-42" value="ใช่" style="edgeLabel;html=1;align=center;verticalAlign=middle;resizable=0;points=[];" vertex="1" connectable="0" parent="Mx8qGbrx650eS_pqwrDC-41">
          <mxGeometry x="-0.2859" relative="1" as="geometry">
            <mxPoint as="offset" />
          </mxGeometry>
        </mxCell>
        <mxCell id="Mx8qGbrx650eS_pqwrDC-43" style="edgeStyle=orthogonalEdgeStyle;rounded=0;orthogonalLoop=1;jettySize=auto;html=1;" edge="1" parent="1" source="Mx8qGbrx650eS_pqwrDC-45" target="Mx8qGbrx650eS_pqwrDC-51">
          <mxGeometry relative="1" as="geometry">
            <mxPoint x="680" y="645.9999999999998" as="targetPoint" />
          </mxGeometry>
        </mxCell>
        <mxCell id="Mx8qGbrx650eS_pqwrDC-44" value="ไม่" style="edgeLabel;html=1;align=center;verticalAlign=middle;resizable=0;points=[];" vertex="1" connectable="0" parent="Mx8qGbrx650eS_pqwrDC-43">
          <mxGeometry x="-0.0865" y="2" relative="1" as="geometry">
            <mxPoint as="offset" />
          </mxGeometry>
        </mxCell>
        <mxCell id="Mx8qGbrx650eS_pqwrDC-45" value="มี ?" style="rhombus;whiteSpace=wrap;html=1;" vertex="1" parent="1">
          <mxGeometry x="552" y="610" width="66" height="72" as="geometry" />
        </mxCell>
        <mxCell id="Mx8qGbrx650eS_pqwrDC-46" value="ใช่" style="edgeStyle=orthogonalEdgeStyle;rounded=0;orthogonalLoop=1;jettySize=auto;html=1;" edge="1" parent="1" source="Mx8qGbrx650eS_pqwrDC-49" target="Mx8qGbrx650eS_pqwrDC-55">
          <mxGeometry relative="1" as="geometry" />
        </mxCell>
        <mxCell id="Mx8qGbrx650eS_pqwrDC-47" value="" style="edgeStyle=orthogonalEdgeStyle;rounded=0;orthogonalLoop=1;jettySize=auto;html=1;" edge="1" parent="1" source="Mx8qGbrx650eS_pqwrDC-49" target="Mx8qGbrx650eS_pqwrDC-57">
          <mxGeometry relative="1" as="geometry" />
        </mxCell>
        <mxCell id="Mx8qGbrx650eS_pqwrDC-48" value="ไม่" style="edgeLabel;html=1;align=center;verticalAlign=middle;resizable=0;points=[];" vertex="1" connectable="0" parent="Mx8qGbrx650eS_pqwrDC-47">
          <mxGeometry x="-0.1127" relative="1" as="geometry">
            <mxPoint as="offset" />
          </mxGeometry>
        </mxCell>
        <mxCell id="Mx8qGbrx650eS_pqwrDC-49" value="Company &lt;br&gt;มีในระบบ&lt;br&gt;ไหม ?" style="rhombus;whiteSpace=wrap;html=1;" vertex="1" parent="1">
          <mxGeometry x="540" y="740" width="90" height="80" as="geometry" />
        </mxCell>
        <mxCell id="Mx8qGbrx650eS_pqwrDC-50" style="edgeStyle=orthogonalEdgeStyle;rounded=0;orthogonalLoop=1;jettySize=auto;html=1;entryX=1;entryY=0.5;entryDx=0;entryDy=0;" edge="1" parent="1" source="Mx8qGbrx650eS_pqwrDC-51" target="Mx8qGbrx650eS_pqwrDC-63">
          <mxGeometry relative="1" as="geometry">
            <mxPoint x="780" y="800" as="targetPoint" />
            <Array as="points">
              <mxPoint x="778" y="646" />
              <mxPoint x="778" y="1015" />
            </Array>
          </mxGeometry>
        </mxCell>
        <mxCell id="Mx8qGbrx650eS_pqwrDC-51" value="rerturn Error Code&amp;nbsp;002&lt;span style=&quot;font-size: medium; text-align: start;&quot;&gt;&lt;/span&gt;" style="rounded=1;whiteSpace=wrap;html=1;" vertex="1" parent="1">
          <mxGeometry x="680" y="626" width="77.5" height="40" as="geometry" />
        </mxCell>
        <mxCell id="Mx8qGbrx650eS_pqwrDC-52" value="" style="edgeStyle=orthogonalEdgeStyle;rounded=0;orthogonalLoop=1;jettySize=auto;html=1;" edge="1" parent="1" source="Mx8qGbrx650eS_pqwrDC-55" target="Mx8qGbrx650eS_pqwrDC-59">
          <mxGeometry relative="1" as="geometry" />
        </mxCell>
        <mxCell id="Mx8qGbrx650eS_pqwrDC-53" value="ไม่" style="edgeLabel;html=1;align=center;verticalAlign=middle;resizable=0;points=[];" vertex="1" connectable="0" parent="Mx8qGbrx650eS_pqwrDC-52">
          <mxGeometry x="-0.2152" y="2" relative="1" as="geometry">
            <mxPoint as="offset" />
          </mxGeometry>
        </mxCell>
        <mxCell id="Mx8qGbrx650eS_pqwrDC-54" style="edgeStyle=orthogonalEdgeStyle;rounded=0;orthogonalLoop=1;jettySize=auto;html=1;entryX=1;entryY=0.5;entryDx=0;entryDy=0;" edge="1" parent="1" source="Mx8qGbrx650eS_pqwrDC-55" target="Mx8qGbrx650eS_pqwrDC-61">
          <mxGeometry relative="1" as="geometry">
            <Array as="points">
              <mxPoint x="585" y="980" />
            </Array>
          </mxGeometry>
        </mxCell>
        <mxCell id="Mx8qGbrx650eS_pqwrDC-55" value="Company &lt;br&gt;Active ?" style="rhombus;whiteSpace=wrap;html=1;" vertex="1" parent="1">
          <mxGeometry x="540" y="860" width="90" height="80" as="geometry" />
        </mxCell>
        <mxCell id="Mx8qGbrx650eS_pqwrDC-56" style="edgeStyle=orthogonalEdgeStyle;rounded=0;orthogonalLoop=1;jettySize=auto;html=1;entryX=1;entryY=0;entryDx=0;entryDy=0;" edge="1" parent="1" source="Mx8qGbrx650eS_pqwrDC-57" target="Mx8qGbrx650eS_pqwrDC-63">
          <mxGeometry relative="1" as="geometry">
            <Array as="points">
              <mxPoint x="770" y="780" />
              <mxPoint x="770" y="997" />
            </Array>
          </mxGeometry>
        </mxCell>
        <mxCell id="Mx8qGbrx650eS_pqwrDC-57" value="rerturn Error Code&amp;nbsp;007&lt;span style=&quot;font-size: medium; text-align: start;&quot;&gt;&lt;/span&gt;" style="rounded=1;whiteSpace=wrap;html=1;" vertex="1" parent="1">
          <mxGeometry x="680" y="760" width="77.5" height="40" as="geometry" />
        </mxCell>
        <mxCell id="Mx8qGbrx650eS_pqwrDC-58" style="edgeStyle=orthogonalEdgeStyle;rounded=0;orthogonalLoop=1;jettySize=auto;html=1;" edge="1" parent="1" source="Mx8qGbrx650eS_pqwrDC-59" target="Mx8qGbrx650eS_pqwrDC-63">
          <mxGeometry relative="1" as="geometry" />
        </mxCell>
        <mxCell id="Mx8qGbrx650eS_pqwrDC-59" value="rerturn Error Code&amp;nbsp;051&lt;span style=&quot;font-size: medium; text-align: start;&quot;&gt;&lt;/span&gt;" style="rounded=1;whiteSpace=wrap;html=1;" vertex="1" parent="1">
          <mxGeometry x="680" y="880" width="77.5" height="40" as="geometry" />
        </mxCell>
        <mxCell id="Mx8qGbrx650eS_pqwrDC-60" value="" style="edgeStyle=orthogonalEdgeStyle;rounded=0;orthogonalLoop=1;jettySize=auto;html=1;" edge="1" parent="1" source="Mx8qGbrx650eS_pqwrDC-61" target="Mx8qGbrx650eS_pqwrDC-66">
          <mxGeometry relative="1" as="geometry" />
        </mxCell>
        <mxCell id="Mx8qGbrx650eS_pqwrDC-61" value="ดึงข้อมูลนายทะเบียนหลักทรัพย์" style="rounded=1;whiteSpace=wrap;html=1;" vertex="1" parent="1">
          <mxGeometry x="387" y="950" width="120" height="40" as="geometry" />
        </mxCell>
        <mxCell id="Mx8qGbrx650eS_pqwrDC-62" style="edgeStyle=orthogonalEdgeStyle;rounded=0;orthogonalLoop=1;jettySize=auto;html=1;entryX=1;entryY=1;entryDx=0;entryDy=0;" edge="1" parent="1" source="Mx8qGbrx650eS_pqwrDC-63" target="Mx8qGbrx650eS_pqwrDC-64">
          <mxGeometry relative="1" as="geometry">
            <Array as="points">
              <mxPoint x="719" y="1140" />
              <mxPoint x="450" y="1140" />
            </Array>
          </mxGeometry>
        </mxCell>
        <mxCell id="Mx8qGbrx650eS_pqwrDC-63" value="" style="ellipse;whiteSpace=wrap;html=1;aspect=fixed;" vertex="1" parent="1">
          <mxGeometry x="693.75" y="990" width="50" height="50" as="geometry" />
        </mxCell>
        <mxCell id="Mx8qGbrx650eS_pqwrDC-64" value="สิ้นสุด" style="ellipse;whiteSpace=wrap;html=1;" vertex="1" parent="1">
          <mxGeometry x="362" y="1090" width="103" height="60" as="geometry" />
        </mxCell>
        <mxCell id="Mx8qGbrx650eS_pqwrDC-65" style="edgeStyle=orthogonalEdgeStyle;rounded=0;orthogonalLoop=1;jettySize=auto;html=1;entryX=1;entryY=0.5;entryDx=0;entryDy=0;" edge="1" parent="1" source="Mx8qGbrx650eS_pqwrDC-66" target="Mx8qGbrx650eS_pqwrDC-64">
          <mxGeometry relative="1" as="geometry" />
        </mxCell>
        <mxCell id="Mx8qGbrx650eS_pqwrDC-66" value="ส่งกลับข้อมูลนายทะเบียนหลักทรัพย์" style="rounded=1;whiteSpace=wrap;html=1;" vertex="1" parent="1">
          <mxGeometry x="387" y="1020" width="120" height="40" as="geometry" />
        </mxCell>
      </root>
    </mxGraphModel>
  </diagram>
  <diagram id="edU_T4GI_lPeyyktAkjR" name="หน้า-2">
    <mxGraphModel dx="1146" dy="1011" grid="1" gridSize="10" guides="1" tooltips="1" connect="1" arrows="1" fold="1" page="1" pageScale="1" pageWidth="827" pageHeight="1169" math="0" shadow="0">
      <root>
        <mxCell id="0" />
        <mxCell id="1" parent="0" />
        <mxCell id="jwheAAu1fPxgpQ0IZMXF-1" value="เริ่ม" style="ellipse;whiteSpace=wrap;html=1;" vertex="1" parent="1">
          <mxGeometry x="75" y="20" width="80" height="40" as="geometry" />
        </mxCell>
        <mxCell id="jwheAAu1fPxgpQ0IZMXF-2" value="ตรวจสอบสิทธิ์การใช้งาน" style="rounded=1;whiteSpace=wrap;html=1;" vertex="1" parent="1">
          <mxGeometry x="45" y="100" width="140" height="30" as="geometry" />
        </mxCell>
        <mxCell id="jwheAAu1fPxgpQ0IZMXF-3" value="" style="edgeStyle=orthogonalEdgeStyle;rounded=0;orthogonalLoop=1;jettySize=auto;html=1;" edge="1" parent="1" source="jwheAAu1fPxgpQ0IZMXF-1" target="jwheAAu1fPxgpQ0IZMXF-2">
          <mxGeometry relative="1" as="geometry" />
        </mxCell>
        <mxCell id="jwheAAu1fPxgpQ0IZMXF-4" value="มี ?" style="rhombus;whiteSpace=wrap;html=1;" vertex="1" parent="1">
          <mxGeometry x="85" y="160" width="60" height="60" as="geometry" />
        </mxCell>
        <mxCell id="jwheAAu1fPxgpQ0IZMXF-5" value="" style="edgeStyle=orthogonalEdgeStyle;rounded=0;orthogonalLoop=1;jettySize=auto;html=1;" edge="1" parent="1" source="jwheAAu1fPxgpQ0IZMXF-2" target="jwheAAu1fPxgpQ0IZMXF-4">
          <mxGeometry relative="1" as="geometry" />
        </mxCell>
        <mxCell id="jwheAAu1fPxgpQ0IZMXF-6" style="edgeStyle=orthogonalEdgeStyle;rounded=0;orthogonalLoop=1;jettySize=auto;html=1;entryX=-0.022;entryY=0.676;entryDx=0;entryDy=0;entryPerimeter=0;" edge="1" parent="1" source="jwheAAu1fPxgpQ0IZMXF-4" target="jwheAAu1fPxgpQ0IZMXF-19">
          <mxGeometry relative="1" as="geometry">
            <Array as="points">
              <mxPoint x="115" y="624" />
            </Array>
            <mxPoint x="270" y="730" as="targetPoint" />
          </mxGeometry>
        </mxCell>
        <mxCell id="jwheAAu1fPxgpQ0IZMXF-7" value="ไม่" style="edgeLabel;html=1;align=center;verticalAlign=middle;resizable=0;points=[];" vertex="1" connectable="0" parent="jwheAAu1fPxgpQ0IZMXF-6">
          <mxGeometry x="-0.8925" y="1" relative="1" as="geometry">
            <mxPoint as="offset" />
          </mxGeometry>
        </mxCell>
        <mxCell id="jwheAAu1fPxgpQ0IZMXF-8" value="ตรวจสอบ Account &lt;br&gt;สถานะการใช้งาน" style="rounded=1;whiteSpace=wrap;html=1;" vertex="1" parent="1">
          <mxGeometry x="261.35" y="169" width="170" height="40" as="geometry" />
        </mxCell>
        <mxCell id="jwheAAu1fPxgpQ0IZMXF-9" value="" style="edgeStyle=orthogonalEdgeStyle;rounded=0;orthogonalLoop=1;jettySize=auto;html=1;" edge="1" parent="1" source="jwheAAu1fPxgpQ0IZMXF-4" target="jwheAAu1fPxgpQ0IZMXF-8">
          <mxGeometry relative="1" as="geometry">
            <Array as="points">
              <mxPoint x="225" y="190" />
              <mxPoint x="225" y="190" />
            </Array>
          </mxGeometry>
        </mxCell>
        <mxCell id="jwheAAu1fPxgpQ0IZMXF-10" value="ใช่" style="edgeLabel;html=1;align=center;verticalAlign=middle;resizable=0;points=[];" vertex="1" connectable="0" parent="jwheAAu1fPxgpQ0IZMXF-9">
          <mxGeometry x="-0.7797" y="-1" relative="1" as="geometry">
            <mxPoint as="offset" />
          </mxGeometry>
        </mxCell>
        <mxCell id="jwheAAu1fPxgpQ0IZMXF-11" value="มีใน&lt;br&gt;ระบบ &lt;br&gt;?" style="rhombus;whiteSpace=wrap;html=1;" vertex="1" parent="1">
          <mxGeometry x="308.85" y="248" width="75" height="70" as="geometry" />
        </mxCell>
        <mxCell id="jwheAAu1fPxgpQ0IZMXF-12" value="" style="edgeStyle=orthogonalEdgeStyle;rounded=0;orthogonalLoop=1;jettySize=auto;html=1;" edge="1" parent="1" source="jwheAAu1fPxgpQ0IZMXF-8" target="jwheAAu1fPxgpQ0IZMXF-11">
          <mxGeometry relative="1" as="geometry" />
        </mxCell>
        <mxCell id="jwheAAu1fPxgpQ0IZMXF-13" value="status&lt;br style=&quot;border-color: var(--border-color);&quot;&gt;= 1 ?" style="rhombus;whiteSpace=wrap;html=1;" vertex="1" parent="1">
          <mxGeometry x="316.35" y="368" width="60" height="60" as="geometry" />
        </mxCell>
        <mxCell id="jwheAAu1fPxgpQ0IZMXF-14" value="" style="edgeStyle=orthogonalEdgeStyle;rounded=0;orthogonalLoop=1;jettySize=auto;html=1;" edge="1" parent="1" source="jwheAAu1fPxgpQ0IZMXF-11" target="jwheAAu1fPxgpQ0IZMXF-13">
          <mxGeometry relative="1" as="geometry" />
        </mxCell>
        <mxCell id="jwheAAu1fPxgpQ0IZMXF-15" value="ใช่" style="edgeLabel;html=1;align=center;verticalAlign=middle;resizable=0;points=[];" vertex="1" connectable="0" parent="jwheAAu1fPxgpQ0IZMXF-14">
          <mxGeometry x="-0.3254" y="2" relative="1" as="geometry">
            <mxPoint x="-2" as="offset" />
          </mxGeometry>
        </mxCell>
        <mxCell id="jwheAAu1fPxgpQ0IZMXF-16" value="Locked&lt;br style=&quot;border-color: var(--border-color);&quot;&gt;= 1 ?&amp;nbsp;" style="rhombus;whiteSpace=wrap;html=1;" vertex="1" parent="1">
          <mxGeometry x="316.35" y="498" width="60" height="60" as="geometry" />
        </mxCell>
        <mxCell id="jwheAAu1fPxgpQ0IZMXF-17" value="" style="edgeStyle=orthogonalEdgeStyle;rounded=0;orthogonalLoop=1;jettySize=auto;html=1;" edge="1" parent="1" source="jwheAAu1fPxgpQ0IZMXF-13" target="jwheAAu1fPxgpQ0IZMXF-16">
          <mxGeometry relative="1" as="geometry" />
        </mxCell>
        <mxCell id="jwheAAu1fPxgpQ0IZMXF-18" value="ไม่" style="edgeLabel;html=1;align=center;verticalAlign=middle;resizable=0;points=[];" vertex="1" connectable="0" parent="jwheAAu1fPxgpQ0IZMXF-17">
          <mxGeometry x="-0.3745" relative="1" as="geometry">
            <mxPoint as="offset" />
          </mxGeometry>
        </mxCell>
        <mxCell id="jwheAAu1fPxgpQ0IZMXF-19" value="" style="ellipse;whiteSpace=wrap;html=1;aspect=fixed;" vertex="1" parent="1">
          <mxGeometry x="218.75" y="590" width="50" height="50" as="geometry" />
        </mxCell>
        <mxCell id="jwheAAu1fPxgpQ0IZMXF-20" style="edgeStyle=orthogonalEdgeStyle;rounded=0;orthogonalLoop=1;jettySize=auto;html=1;" edge="1" parent="1" source="jwheAAu1fPxgpQ0IZMXF-21" target="jwheAAu1fPxgpQ0IZMXF-19">
          <mxGeometry relative="1" as="geometry">
            <Array as="points">
              <mxPoint x="145" y="283" />
              <mxPoint x="145" y="610" />
            </Array>
          </mxGeometry>
        </mxCell>
        <mxCell id="jwheAAu1fPxgpQ0IZMXF-21" value="rerturn Error Code&amp;nbsp;001&lt;span style=&quot;font-size: medium; text-align: start;&quot;&gt;&lt;/span&gt;" style="rounded=1;whiteSpace=wrap;html=1;" vertex="1" parent="1">
          <mxGeometry x="155" y="263" width="77.5" height="40" as="geometry" />
        </mxCell>
        <mxCell id="jwheAAu1fPxgpQ0IZMXF-22" style="edgeStyle=orthogonalEdgeStyle;rounded=0;orthogonalLoop=1;jettySize=auto;html=1;" edge="1" parent="1" source="jwheAAu1fPxgpQ0IZMXF-11" target="jwheAAu1fPxgpQ0IZMXF-21">
          <mxGeometry relative="1" as="geometry">
            <mxPoint x="245.10000000000002" y="388" as="targetPoint" />
          </mxGeometry>
        </mxCell>
        <mxCell id="jwheAAu1fPxgpQ0IZMXF-23" value="ไม่" style="edgeLabel;html=1;align=center;verticalAlign=middle;resizable=0;points=[];" vertex="1" connectable="0" parent="jwheAAu1fPxgpQ0IZMXF-22">
          <mxGeometry x="-0.6573" y="2" relative="1" as="geometry">
            <mxPoint as="offset" />
          </mxGeometry>
        </mxCell>
        <mxCell id="jwheAAu1fPxgpQ0IZMXF-24" style="edgeStyle=orthogonalEdgeStyle;rounded=0;orthogonalLoop=1;jettySize=auto;html=1;entryX=0.5;entryY=0;entryDx=0;entryDy=0;" edge="1" parent="1" source="jwheAAu1fPxgpQ0IZMXF-25" target="jwheAAu1fPxgpQ0IZMXF-19">
          <mxGeometry relative="1" as="geometry" />
        </mxCell>
        <mxCell id="jwheAAu1fPxgpQ0IZMXF-25" value="rerturn Error Code&amp;nbsp;011&lt;span style=&quot;font-size: medium; text-align: start;&quot;&gt;&lt;/span&gt;" style="rounded=1;whiteSpace=wrap;html=1;" vertex="1" parent="1">
          <mxGeometry x="205" y="508" width="77.5" height="40" as="geometry" />
        </mxCell>
        <mxCell id="jwheAAu1fPxgpQ0IZMXF-26" value="" style="edgeStyle=orthogonalEdgeStyle;rounded=0;orthogonalLoop=1;jettySize=auto;html=1;" edge="1" parent="1" source="jwheAAu1fPxgpQ0IZMXF-16" target="jwheAAu1fPxgpQ0IZMXF-25">
          <mxGeometry relative="1" as="geometry" />
        </mxCell>
        <mxCell id="jwheAAu1fPxgpQ0IZMXF-27" value="ใช่" style="edgeLabel;html=1;align=center;verticalAlign=middle;resizable=0;points=[];" vertex="1" connectable="0" parent="jwheAAu1fPxgpQ0IZMXF-26">
          <mxGeometry x="-0.4608" y="1" relative="1" as="geometry">
            <mxPoint as="offset" />
          </mxGeometry>
        </mxCell>
        <mxCell id="jwheAAu1fPxgpQ0IZMXF-28" style="edgeStyle=orthogonalEdgeStyle;rounded=0;orthogonalLoop=1;jettySize=auto;html=1;" edge="1" parent="1" source="jwheAAu1fPxgpQ0IZMXF-29" target="jwheAAu1fPxgpQ0IZMXF-19">
          <mxGeometry relative="1" as="geometry">
            <mxPoint x="245" y="590" as="targetPoint" />
            <Array as="points">
              <mxPoint x="185" y="398" />
              <mxPoint x="185" y="600" />
            </Array>
          </mxGeometry>
        </mxCell>
        <mxCell id="jwheAAu1fPxgpQ0IZMXF-29" value="rerturn Error Code&amp;nbsp;004&lt;span style=&quot;font-size: medium; text-align: start;&quot;&gt;&lt;/span&gt;" style="rounded=1;whiteSpace=wrap;html=1;" vertex="1" parent="1">
          <mxGeometry x="205" y="378" width="77.5" height="40" as="geometry" />
        </mxCell>
        <mxCell id="jwheAAu1fPxgpQ0IZMXF-30" value="" style="edgeStyle=orthogonalEdgeStyle;rounded=0;orthogonalLoop=1;jettySize=auto;html=1;" edge="1" parent="1" source="jwheAAu1fPxgpQ0IZMXF-13" target="jwheAAu1fPxgpQ0IZMXF-29">
          <mxGeometry relative="1" as="geometry" />
        </mxCell>
        <mxCell id="jwheAAu1fPxgpQ0IZMXF-31" value="ใช่" style="edgeLabel;html=1;align=center;verticalAlign=middle;resizable=0;points=[];" vertex="1" connectable="0" parent="jwheAAu1fPxgpQ0IZMXF-30">
          <mxGeometry x="-0.4608" y="2" relative="1" as="geometry">
            <mxPoint as="offset" />
          </mxGeometry>
        </mxCell>
        <mxCell id="jwheAAu1fPxgpQ0IZMXF-32" value="" style="edgeStyle=orthogonalEdgeStyle;rounded=0;orthogonalLoop=1;jettySize=auto;html=1;entryX=0.1;entryY=0.5;entryDx=0;entryDy=0;entryPerimeter=0;" edge="1" parent="1" source="jwheAAu1fPxgpQ0IZMXF-16" target="jwheAAu1fPxgpQ0IZMXF-35">
          <mxGeometry relative="1" as="geometry">
            <mxPoint x="419" y="528" as="targetPoint" />
          </mxGeometry>
        </mxCell>
        <mxCell id="jwheAAu1fPxgpQ0IZMXF-33" value="" style="edgeStyle=orthogonalEdgeStyle;rounded=0;orthogonalLoop=1;jettySize=auto;html=1;" edge="1" parent="1" source="jwheAAu1fPxgpQ0IZMXF-35">
          <mxGeometry relative="1" as="geometry">
            <mxPoint x="535" y="528" as="targetPoint" />
          </mxGeometry>
        </mxCell>
        <mxCell id="jwheAAu1fPxgpQ0IZMXF-34" value="ไม่" style="edgeLabel;html=1;align=center;verticalAlign=middle;resizable=0;points=[];" vertex="1" connectable="0" parent="jwheAAu1fPxgpQ0IZMXF-33">
          <mxGeometry x="-0.3115" y="3" relative="1" as="geometry">
            <mxPoint as="offset" />
          </mxGeometry>
        </mxCell>
        <mxCell id="jwheAAu1fPxgpQ0IZMXF-35" value="Super&lt;br&gt;Admin ?" style="rhombus;whiteSpace=wrap;html=1;" vertex="1" parent="1">
          <mxGeometry x="419" y="492" width="66" height="72" as="geometry" />
        </mxCell>
        <mxCell id="jwheAAu1fPxgpQ0IZMXF-36" value="ตรวจสอบสิทธิ์การใช้งาน Company นี้ไหม&lt;span style=&quot;font-size: medium; text-align: start;&quot;&gt;&lt;/span&gt;" style="rounded=1;whiteSpace=wrap;html=1;" vertex="1" parent="1">
          <mxGeometry x="535" y="508" width="110" height="42" as="geometry" />
        </mxCell>
        <mxCell id="jwheAAu1fPxgpQ0IZMXF-37" value="มี ?" style="rhombus;whiteSpace=wrap;html=1;" vertex="1" parent="1">
          <mxGeometry x="557" y="590" width="66" height="72" as="geometry" />
        </mxCell>
        <mxCell id="jwheAAu1fPxgpQ0IZMXF-38" value="" style="edgeStyle=orthogonalEdgeStyle;rounded=0;orthogonalLoop=1;jettySize=auto;html=1;" edge="1" parent="1" source="jwheAAu1fPxgpQ0IZMXF-36" target="jwheAAu1fPxgpQ0IZMXF-37">
          <mxGeometry relative="1" as="geometry" />
        </mxCell>
        <mxCell id="jwheAAu1fPxgpQ0IZMXF-39" value="Company &lt;br&gt;มีในระบบ&lt;br&gt;ไหม ?" style="rhombus;whiteSpace=wrap;html=1;" vertex="1" parent="1">
          <mxGeometry x="545" y="720" width="90" height="80" as="geometry" />
        </mxCell>
        <mxCell id="jwheAAu1fPxgpQ0IZMXF-40" value="" style="edgeStyle=orthogonalEdgeStyle;rounded=0;orthogonalLoop=1;jettySize=auto;html=1;" edge="1" parent="1" source="jwheAAu1fPxgpQ0IZMXF-37" target="jwheAAu1fPxgpQ0IZMXF-39">
          <mxGeometry relative="1" as="geometry" />
        </mxCell>
        <mxCell id="jwheAAu1fPxgpQ0IZMXF-41" value="ใช่" style="edgeLabel;html=1;align=center;verticalAlign=middle;resizable=0;points=[];" vertex="1" connectable="0" parent="jwheAAu1fPxgpQ0IZMXF-40">
          <mxGeometry x="-0.2859" relative="1" as="geometry">
            <mxPoint as="offset" />
          </mxGeometry>
        </mxCell>
        <mxCell id="jwheAAu1fPxgpQ0IZMXF-42" value="rerturn Error Code&amp;nbsp;002&lt;span style=&quot;font-size: medium; text-align: start;&quot;&gt;&lt;/span&gt;" style="rounded=1;whiteSpace=wrap;html=1;" vertex="1" parent="1">
          <mxGeometry x="685" y="606" width="77.5" height="40" as="geometry" />
        </mxCell>
        <mxCell id="jwheAAu1fPxgpQ0IZMXF-43" style="edgeStyle=orthogonalEdgeStyle;rounded=0;orthogonalLoop=1;jettySize=auto;html=1;" edge="1" parent="1" source="jwheAAu1fPxgpQ0IZMXF-37" target="jwheAAu1fPxgpQ0IZMXF-42">
          <mxGeometry relative="1" as="geometry">
            <mxPoint x="685" y="625.9999999999998" as="targetPoint" />
          </mxGeometry>
        </mxCell>
        <mxCell id="jwheAAu1fPxgpQ0IZMXF-44" value="ไม่" style="edgeLabel;html=1;align=center;verticalAlign=middle;resizable=0;points=[];" vertex="1" connectable="0" parent="jwheAAu1fPxgpQ0IZMXF-43">
          <mxGeometry x="-0.0865" y="2" relative="1" as="geometry">
            <mxPoint as="offset" />
          </mxGeometry>
        </mxCell>
        <mxCell id="jwheAAu1fPxgpQ0IZMXF-45" value="Company &lt;br&gt;Active ?" style="rhombus;whiteSpace=wrap;html=1;" vertex="1" parent="1">
          <mxGeometry x="545" y="840" width="90" height="80" as="geometry" />
        </mxCell>
        <mxCell id="jwheAAu1fPxgpQ0IZMXF-46" value="ใช่" style="edgeStyle=orthogonalEdgeStyle;rounded=0;orthogonalLoop=1;jettySize=auto;html=1;" edge="1" parent="1" source="jwheAAu1fPxgpQ0IZMXF-39" target="jwheAAu1fPxgpQ0IZMXF-45">
          <mxGeometry relative="1" as="geometry" />
        </mxCell>
        <mxCell id="jwheAAu1fPxgpQ0IZMXF-47" value="rerturn Error Code&amp;nbsp;007&lt;span style=&quot;font-size: medium; text-align: start;&quot;&gt;&lt;/span&gt;" style="rounded=1;whiteSpace=wrap;html=1;" vertex="1" parent="1">
          <mxGeometry x="685" y="740" width="77.5" height="40" as="geometry" />
        </mxCell>
        <mxCell id="jwheAAu1fPxgpQ0IZMXF-48" value="" style="edgeStyle=orthogonalEdgeStyle;rounded=0;orthogonalLoop=1;jettySize=auto;html=1;" edge="1" parent="1" source="jwheAAu1fPxgpQ0IZMXF-39" target="jwheAAu1fPxgpQ0IZMXF-47">
          <mxGeometry relative="1" as="geometry" />
        </mxCell>
        <mxCell id="jwheAAu1fPxgpQ0IZMXF-49" value="ไม่" style="edgeLabel;html=1;align=center;verticalAlign=middle;resizable=0;points=[];" vertex="1" connectable="0" parent="jwheAAu1fPxgpQ0IZMXF-48">
          <mxGeometry x="-0.1127" relative="1" as="geometry">
            <mxPoint as="offset" />
          </mxGeometry>
        </mxCell>
        <mxCell id="jwheAAu1fPxgpQ0IZMXF-50" value="rerturn Error Code&amp;nbsp;051&lt;span style=&quot;font-size: medium; text-align: start;&quot;&gt;&lt;/span&gt;" style="rounded=1;whiteSpace=wrap;html=1;" vertex="1" parent="1">
          <mxGeometry x="685" y="860" width="77.5" height="40" as="geometry" />
        </mxCell>
        <mxCell id="jwheAAu1fPxgpQ0IZMXF-51" value="" style="edgeStyle=orthogonalEdgeStyle;rounded=0;orthogonalLoop=1;jettySize=auto;html=1;" edge="1" parent="1" source="jwheAAu1fPxgpQ0IZMXF-45" target="jwheAAu1fPxgpQ0IZMXF-50">
          <mxGeometry relative="1" as="geometry" />
        </mxCell>
        <mxCell id="jwheAAu1fPxgpQ0IZMXF-52" value="ไม่" style="edgeLabel;html=1;align=center;verticalAlign=middle;resizable=0;points=[];" vertex="1" connectable="0" parent="jwheAAu1fPxgpQ0IZMXF-51">
          <mxGeometry x="-0.2152" y="2" relative="1" as="geometry">
            <mxPoint as="offset" />
          </mxGeometry>
        </mxCell>
        <mxCell id="jwheAAu1fPxgpQ0IZMXF-53" value="" style="edgeStyle=orthogonalEdgeStyle;rounded=0;orthogonalLoop=1;jettySize=auto;html=1;" edge="1" parent="1" source="jwheAAu1fPxgpQ0IZMXF-54" target="jwheAAu1fPxgpQ0IZMXF-70">
          <mxGeometry relative="1" as="geometry" />
        </mxCell>
        <mxCell id="jwheAAu1fPxgpQ0IZMXF-54" value="ดึงข้อมูลนายทะเบียนหลักทรัพย์" style="rounded=1;whiteSpace=wrap;html=1;" vertex="1" parent="1">
          <mxGeometry x="392" y="860" width="120" height="40" as="geometry" />
        </mxCell>
        <mxCell id="jwheAAu1fPxgpQ0IZMXF-55" style="edgeStyle=orthogonalEdgeStyle;rounded=0;orthogonalLoop=1;jettySize=auto;html=1;entryX=0.5;entryY=0;entryDx=0;entryDy=0;" edge="1" parent="1" source="jwheAAu1fPxgpQ0IZMXF-35" target="jwheAAu1fPxgpQ0IZMXF-54">
          <mxGeometry relative="1" as="geometry">
            <mxPoint x="452" y="920" as="targetPoint" />
          </mxGeometry>
        </mxCell>
        <mxCell id="jwheAAu1fPxgpQ0IZMXF-56" value="ใช่" style="edgeLabel;html=1;align=center;verticalAlign=middle;resizable=0;points=[];" vertex="1" connectable="0" parent="jwheAAu1fPxgpQ0IZMXF-55">
          <mxGeometry x="-0.3215" y="2" relative="1" as="geometry">
            <mxPoint as="offset" />
          </mxGeometry>
        </mxCell>
        <mxCell id="jwheAAu1fPxgpQ0IZMXF-57" style="edgeStyle=orthogonalEdgeStyle;rounded=0;orthogonalLoop=1;jettySize=auto;html=1;entryX=1;entryY=0.5;entryDx=0;entryDy=0;" edge="1" parent="1" source="jwheAAu1fPxgpQ0IZMXF-45" target="jwheAAu1fPxgpQ0IZMXF-54">
          <mxGeometry relative="1" as="geometry">
            <Array as="points">
              <mxPoint x="512" y="880" />
            </Array>
          </mxGeometry>
        </mxCell>
        <mxCell id="jwheAAu1fPxgpQ0IZMXF-58" value="" style="ellipse;whiteSpace=wrap;html=1;aspect=fixed;" vertex="1" parent="1">
          <mxGeometry x="698.75" y="970" width="50" height="50" as="geometry" />
        </mxCell>
        <mxCell id="jwheAAu1fPxgpQ0IZMXF-59" style="edgeStyle=orthogonalEdgeStyle;rounded=0;orthogonalLoop=1;jettySize=auto;html=1;entryX=1;entryY=0.5;entryDx=0;entryDy=0;" edge="1" parent="1" source="jwheAAu1fPxgpQ0IZMXF-42" target="jwheAAu1fPxgpQ0IZMXF-58">
          <mxGeometry relative="1" as="geometry">
            <mxPoint x="785" y="780" as="targetPoint" />
            <Array as="points">
              <mxPoint x="783" y="626" />
              <mxPoint x="783" y="995" />
            </Array>
          </mxGeometry>
        </mxCell>
        <mxCell id="jwheAAu1fPxgpQ0IZMXF-60" style="edgeStyle=orthogonalEdgeStyle;rounded=0;orthogonalLoop=1;jettySize=auto;html=1;entryX=1;entryY=0;entryDx=0;entryDy=0;" edge="1" parent="1" source="jwheAAu1fPxgpQ0IZMXF-47" target="jwheAAu1fPxgpQ0IZMXF-58">
          <mxGeometry relative="1" as="geometry">
            <Array as="points">
              <mxPoint x="775" y="760" />
              <mxPoint x="775" y="977" />
            </Array>
          </mxGeometry>
        </mxCell>
        <mxCell id="jwheAAu1fPxgpQ0IZMXF-61" style="edgeStyle=orthogonalEdgeStyle;rounded=0;orthogonalLoop=1;jettySize=auto;html=1;" edge="1" parent="1" source="jwheAAu1fPxgpQ0IZMXF-50" target="jwheAAu1fPxgpQ0IZMXF-58">
          <mxGeometry relative="1" as="geometry" />
        </mxCell>
        <mxCell id="jwheAAu1fPxgpQ0IZMXF-62" value="สิ้นสุด" style="ellipse;whiteSpace=wrap;html=1;" vertex="1" parent="1">
          <mxGeometry x="367" y="1070" width="103" height="60" as="geometry" />
        </mxCell>
        <mxCell id="jwheAAu1fPxgpQ0IZMXF-63" style="edgeStyle=orthogonalEdgeStyle;rounded=0;orthogonalLoop=1;jettySize=auto;html=1;entryX=0;entryY=0.5;entryDx=0;entryDy=0;" edge="1" parent="1" source="jwheAAu1fPxgpQ0IZMXF-19" target="jwheAAu1fPxgpQ0IZMXF-62">
          <mxGeometry relative="1" as="geometry">
            <Array as="points">
              <mxPoint x="244" y="1100" />
            </Array>
          </mxGeometry>
        </mxCell>
        <mxCell id="jwheAAu1fPxgpQ0IZMXF-64" style="edgeStyle=orthogonalEdgeStyle;rounded=0;orthogonalLoop=1;jettySize=auto;html=1;entryX=1;entryY=1;entryDx=0;entryDy=0;" edge="1" parent="1" source="jwheAAu1fPxgpQ0IZMXF-58" target="jwheAAu1fPxgpQ0IZMXF-62">
          <mxGeometry relative="1" as="geometry">
            <Array as="points">
              <mxPoint x="724" y="1120" />
              <mxPoint x="455" y="1120" />
            </Array>
          </mxGeometry>
        </mxCell>
        <mxCell id="jwheAAu1fPxgpQ0IZMXF-65" style="edgeStyle=orthogonalEdgeStyle;rounded=0;orthogonalLoop=1;jettySize=auto;html=1;entryX=0;entryY=0;entryDx=0;entryDy=0;" edge="1" parent="1" source="jwheAAu1fPxgpQ0IZMXF-66" target="jwheAAu1fPxgpQ0IZMXF-62">
          <mxGeometry relative="1" as="geometry">
            <Array as="points">
              <mxPoint x="340" y="1080" />
              <mxPoint x="380" y="1080" />
              <mxPoint x="380" y="1079" />
            </Array>
          </mxGeometry>
        </mxCell>
        <mxCell id="jwheAAu1fPxgpQ0IZMXF-66" value="ส่งกลับข้อมูลนายทะเบียนหลักทรัพย์" style="rounded=1;whiteSpace=wrap;html=1;" vertex="1" parent="1">
          <mxGeometry x="280" y="930" width="120" height="40" as="geometry" />
        </mxCell>
        <mxCell id="jwheAAu1fPxgpQ0IZMXF-67" value="" style="edgeStyle=orthogonalEdgeStyle;rounded=0;orthogonalLoop=1;jettySize=auto;html=1;" edge="1" parent="1" source="jwheAAu1fPxgpQ0IZMXF-70" target="jwheAAu1fPxgpQ0IZMXF-66">
          <mxGeometry relative="1" as="geometry" />
        </mxCell>
        <mxCell id="jwheAAu1fPxgpQ0IZMXF-68" value="ใช่" style="edgeLabel;html=1;align=center;verticalAlign=middle;resizable=0;points=[];" vertex="1" connectable="0" parent="jwheAAu1fPxgpQ0IZMXF-67">
          <mxGeometry x="-0.3989" y="-1" relative="1" as="geometry">
            <mxPoint y="2" as="offset" />
          </mxGeometry>
        </mxCell>
        <mxCell id="jwheAAu1fPxgpQ0IZMXF-69" style="edgeStyle=orthogonalEdgeStyle;rounded=0;orthogonalLoop=1;jettySize=auto;html=1;" edge="1" parent="1" source="jwheAAu1fPxgpQ0IZMXF-70" target="jwheAAu1fPxgpQ0IZMXF-72">
          <mxGeometry relative="1" as="geometry" />
        </mxCell>
        <mxCell id="jwheAAu1fPxgpQ0IZMXF-70" value="มี?" style="rhombus;whiteSpace=wrap;html=1;" vertex="1" parent="1">
          <mxGeometry x="427.75" y="930" width="48.5" height="40" as="geometry" />
        </mxCell>
        <mxCell id="jwheAAu1fPxgpQ0IZMXF-71" style="edgeStyle=orthogonalEdgeStyle;rounded=0;orthogonalLoop=1;jettySize=auto;html=1;" edge="1" parent="1" source="jwheAAu1fPxgpQ0IZMXF-72" target="jwheAAu1fPxgpQ0IZMXF-62">
          <mxGeometry relative="1" as="geometry" />
        </mxCell>
        <mxCell id="jwheAAu1fPxgpQ0IZMXF-72" value="return Error code 052" style="rounded=1;whiteSpace=wrap;html=1;" vertex="1" parent="1">
          <mxGeometry x="477" y="1000" width="80" height="50" as="geometry" />
        </mxCell>
      </root>
    </mxGraphModel>
  </diagram>
  <diagram id="570ZhktACJyn1tnu3G4h" name="หน้า-3">
    <mxGraphModel dx="1273" dy="1123" grid="1" gridSize="10" guides="1" tooltips="1" connect="1" arrows="1" fold="1" page="1" pageScale="1" pageWidth="827" pageHeight="1169" math="0" shadow="0">
      <root>
        <mxCell id="0" />
        <mxCell id="1" parent="0" />
        <mxCell id="l6Lb7_MOzwRWu0EUbxVu-1" value="เริ่ม" style="ellipse;whiteSpace=wrap;html=1;" vertex="1" parent="1">
          <mxGeometry x="75" y="20" width="80" height="40" as="geometry" />
        </mxCell>
        <mxCell id="l6Lb7_MOzwRWu0EUbxVu-2" value="ตรวจสอบสิทธิ์การใช้งาน" style="rounded=1;whiteSpace=wrap;html=1;" vertex="1" parent="1">
          <mxGeometry x="45" y="100" width="140" height="30" as="geometry" />
        </mxCell>
        <mxCell id="l6Lb7_MOzwRWu0EUbxVu-3" value="" style="edgeStyle=orthogonalEdgeStyle;rounded=0;orthogonalLoop=1;jettySize=auto;html=1;" edge="1" parent="1" source="l6Lb7_MOzwRWu0EUbxVu-1" target="l6Lb7_MOzwRWu0EUbxVu-2">
          <mxGeometry relative="1" as="geometry" />
        </mxCell>
        <mxCell id="l6Lb7_MOzwRWu0EUbxVu-4" value="มี ?" style="rhombus;whiteSpace=wrap;html=1;" vertex="1" parent="1">
          <mxGeometry x="85" y="160" width="60" height="60" as="geometry" />
        </mxCell>
        <mxCell id="l6Lb7_MOzwRWu0EUbxVu-5" value="" style="edgeStyle=orthogonalEdgeStyle;rounded=0;orthogonalLoop=1;jettySize=auto;html=1;" edge="1" parent="1" source="l6Lb7_MOzwRWu0EUbxVu-2" target="l6Lb7_MOzwRWu0EUbxVu-4">
          <mxGeometry relative="1" as="geometry" />
        </mxCell>
        <mxCell id="l6Lb7_MOzwRWu0EUbxVu-6" style="edgeStyle=orthogonalEdgeStyle;rounded=0;orthogonalLoop=1;jettySize=auto;html=1;entryX=-0.022;entryY=0.676;entryDx=0;entryDy=0;entryPerimeter=0;" edge="1" parent="1" source="l6Lb7_MOzwRWu0EUbxVu-4" target="l6Lb7_MOzwRWu0EUbxVu-19">
          <mxGeometry relative="1" as="geometry">
            <Array as="points">
              <mxPoint x="115" y="696" />
            </Array>
            <mxPoint x="270" y="730" as="targetPoint" />
          </mxGeometry>
        </mxCell>
        <mxCell id="l6Lb7_MOzwRWu0EUbxVu-7" value="ไม่" style="edgeLabel;html=1;align=center;verticalAlign=middle;resizable=0;points=[];" vertex="1" connectable="0" parent="l6Lb7_MOzwRWu0EUbxVu-6">
          <mxGeometry x="-0.8925" y="1" relative="1" as="geometry">
            <mxPoint as="offset" />
          </mxGeometry>
        </mxCell>
        <mxCell id="l6Lb7_MOzwRWu0EUbxVu-8" value="ตรวจสอบ Account &lt;br&gt;สถานะการใช้งาน" style="rounded=1;whiteSpace=wrap;html=1;" vertex="1" parent="1">
          <mxGeometry x="261.35" y="169" width="170" height="40" as="geometry" />
        </mxCell>
        <mxCell id="l6Lb7_MOzwRWu0EUbxVu-9" value="" style="edgeStyle=orthogonalEdgeStyle;rounded=0;orthogonalLoop=1;jettySize=auto;html=1;" edge="1" parent="1" source="l6Lb7_MOzwRWu0EUbxVu-4" target="l6Lb7_MOzwRWu0EUbxVu-8">
          <mxGeometry relative="1" as="geometry">
            <Array as="points">
              <mxPoint x="225" y="190" />
              <mxPoint x="225" y="190" />
            </Array>
          </mxGeometry>
        </mxCell>
        <mxCell id="l6Lb7_MOzwRWu0EUbxVu-10" value="ใช่" style="edgeLabel;html=1;align=center;verticalAlign=middle;resizable=0;points=[];" vertex="1" connectable="0" parent="l6Lb7_MOzwRWu0EUbxVu-9">
          <mxGeometry x="-0.7797" y="-1" relative="1" as="geometry">
            <mxPoint as="offset" />
          </mxGeometry>
        </mxCell>
        <mxCell id="l6Lb7_MOzwRWu0EUbxVu-11" value="มีใน&lt;br&gt;ระบบ &lt;br&gt;?" style="rhombus;whiteSpace=wrap;html=1;" vertex="1" parent="1">
          <mxGeometry x="339" y="248" width="75" height="70" as="geometry" />
        </mxCell>
        <mxCell id="l6Lb7_MOzwRWu0EUbxVu-12" value="" style="edgeStyle=orthogonalEdgeStyle;rounded=0;orthogonalLoop=1;jettySize=auto;html=1;" edge="1" parent="1" source="l6Lb7_MOzwRWu0EUbxVu-8" target="l6Lb7_MOzwRWu0EUbxVu-11">
          <mxGeometry relative="1" as="geometry" />
        </mxCell>
        <mxCell id="l6Lb7_MOzwRWu0EUbxVu-13" value="status&lt;br style=&quot;border-color: var(--border-color);&quot;&gt;= 1 ?" style="rhombus;whiteSpace=wrap;html=1;" vertex="1" parent="1">
          <mxGeometry x="367" y="368" width="60" height="60" as="geometry" />
        </mxCell>
        <mxCell id="l6Lb7_MOzwRWu0EUbxVu-14" value="" style="edgeStyle=orthogonalEdgeStyle;rounded=0;orthogonalLoop=1;jettySize=auto;html=1;" edge="1" parent="1" source="l6Lb7_MOzwRWu0EUbxVu-11" target="l6Lb7_MOzwRWu0EUbxVu-13">
          <mxGeometry relative="1" as="geometry" />
        </mxCell>
        <mxCell id="l6Lb7_MOzwRWu0EUbxVu-15" value="ใช่" style="edgeLabel;html=1;align=center;verticalAlign=middle;resizable=0;points=[];" vertex="1" connectable="0" parent="l6Lb7_MOzwRWu0EUbxVu-14">
          <mxGeometry x="-0.3254" y="2" relative="1" as="geometry">
            <mxPoint x="-2" as="offset" />
          </mxGeometry>
        </mxCell>
        <mxCell id="l6Lb7_MOzwRWu0EUbxVu-16" value="Locked&lt;br style=&quot;border-color: var(--border-color);&quot;&gt;= 1 ?&amp;nbsp;" style="rhombus;whiteSpace=wrap;html=1;" vertex="1" parent="1">
          <mxGeometry x="367.75" y="498" width="60" height="60" as="geometry" />
        </mxCell>
        <mxCell id="l6Lb7_MOzwRWu0EUbxVu-17" value="" style="edgeStyle=orthogonalEdgeStyle;rounded=0;orthogonalLoop=1;jettySize=auto;html=1;" edge="1" parent="1" source="l6Lb7_MOzwRWu0EUbxVu-13" target="l6Lb7_MOzwRWu0EUbxVu-16">
          <mxGeometry relative="1" as="geometry" />
        </mxCell>
        <mxCell id="l6Lb7_MOzwRWu0EUbxVu-18" value="ไม่" style="edgeLabel;html=1;align=center;verticalAlign=middle;resizable=0;points=[];" vertex="1" connectable="0" parent="l6Lb7_MOzwRWu0EUbxVu-17">
          <mxGeometry x="-0.3745" relative="1" as="geometry">
            <mxPoint as="offset" />
          </mxGeometry>
        </mxCell>
        <mxCell id="l6Lb7_MOzwRWu0EUbxVu-19" value="1" style="ellipse;whiteSpace=wrap;html=1;aspect=fixed;" vertex="1" parent="1">
          <mxGeometry x="197.5" y="662" width="50" height="50" as="geometry" />
        </mxCell>
        <mxCell id="l6Lb7_MOzwRWu0EUbxVu-20" style="edgeStyle=orthogonalEdgeStyle;rounded=0;orthogonalLoop=1;jettySize=auto;html=1;exitX=0.492;exitY=0.949;exitDx=0;exitDy=0;exitPerimeter=0;" edge="1" parent="1" source="l6Lb7_MOzwRWu0EUbxVu-21" target="l6Lb7_MOzwRWu0EUbxVu-19">
          <mxGeometry relative="1" as="geometry">
            <Array as="points">
              <mxPoint x="166" y="376" />
              <mxPoint x="150" y="376" />
              <mxPoint x="150" y="680" />
            </Array>
          </mxGeometry>
        </mxCell>
        <mxCell id="l6Lb7_MOzwRWu0EUbxVu-21" value="rerturn Error Code&amp;nbsp;001&lt;span style=&quot;font-size: medium; text-align: start;&quot;&gt;&lt;/span&gt;" style="rounded=1;whiteSpace=wrap;html=1;" vertex="1" parent="1">
          <mxGeometry x="127.5" y="328" width="77.5" height="40" as="geometry" />
        </mxCell>
        <mxCell id="l6Lb7_MOzwRWu0EUbxVu-22" style="edgeStyle=orthogonalEdgeStyle;rounded=0;orthogonalLoop=1;jettySize=auto;html=1;entryX=1;entryY=1;entryDx=0;entryDy=0;" edge="1" parent="1" source="l6Lb7_MOzwRWu0EUbxVu-23" target="l6Lb7_MOzwRWu0EUbxVu-19">
          <mxGeometry relative="1" as="geometry">
            <Array as="points">
              <mxPoint x="302" y="705" />
              <mxPoint x="244" y="705" />
            </Array>
          </mxGeometry>
        </mxCell>
        <mxCell id="l6Lb7_MOzwRWu0EUbxVu-23" value="rerturn Error Code&amp;nbsp;011&lt;span style=&quot;font-size: medium; text-align: start;&quot;&gt;&lt;/span&gt;" style="rounded=1;whiteSpace=wrap;html=1;" vertex="1" parent="1">
          <mxGeometry x="263.5" y="646" width="77.5" height="40" as="geometry" />
        </mxCell>
        <mxCell id="l6Lb7_MOzwRWu0EUbxVu-24" value="" style="edgeStyle=orthogonalEdgeStyle;rounded=0;orthogonalLoop=1;jettySize=auto;html=1;entryX=0.467;entryY=0.027;entryDx=0;entryDy=0;entryPerimeter=0;" edge="1" parent="1" source="l6Lb7_MOzwRWu0EUbxVu-68" target="l6Lb7_MOzwRWu0EUbxVu-70">
          <mxGeometry relative="1" as="geometry" />
        </mxCell>
        <mxCell id="l6Lb7_MOzwRWu0EUbxVu-25" style="edgeStyle=orthogonalEdgeStyle;rounded=0;orthogonalLoop=1;jettySize=auto;html=1;" edge="1" parent="1" source="l6Lb7_MOzwRWu0EUbxVu-26" target="l6Lb7_MOzwRWu0EUbxVu-19">
          <mxGeometry relative="1" as="geometry">
            <mxPoint x="190" y="630" as="targetPoint" />
            <Array as="points">
              <mxPoint x="209" y="660" />
              <mxPoint x="209" y="660" />
            </Array>
          </mxGeometry>
        </mxCell>
        <mxCell id="l6Lb7_MOzwRWu0EUbxVu-26" value="rerturn Error Code&amp;nbsp;004&lt;span style=&quot;font-size: medium; text-align: start;&quot;&gt;&lt;/span&gt;" style="rounded=1;whiteSpace=wrap;html=1;" vertex="1" parent="1">
          <mxGeometry x="170" y="468" width="77.5" height="40" as="geometry" />
        </mxCell>
        <mxCell id="l6Lb7_MOzwRWu0EUbxVu-27" value="" style="edgeStyle=orthogonalEdgeStyle;rounded=0;orthogonalLoop=1;jettySize=auto;html=1;" edge="1" parent="1" source="l6Lb7_MOzwRWu0EUbxVu-13" target="l6Lb7_MOzwRWu0EUbxVu-63">
          <mxGeometry relative="1" as="geometry">
            <mxPoint x="300" y="380" as="targetPoint" />
          </mxGeometry>
        </mxCell>
        <mxCell id="l6Lb7_MOzwRWu0EUbxVu-28" value="ใช่" style="edgeLabel;html=1;align=center;verticalAlign=middle;resizable=0;points=[];" vertex="1" connectable="0" parent="l6Lb7_MOzwRWu0EUbxVu-27">
          <mxGeometry x="-0.4608" y="2" relative="1" as="geometry">
            <mxPoint as="offset" />
          </mxGeometry>
        </mxCell>
        <mxCell id="l6Lb7_MOzwRWu0EUbxVu-29" value="" style="edgeStyle=orthogonalEdgeStyle;rounded=0;orthogonalLoop=1;jettySize=auto;html=1;entryX=0.1;entryY=0.5;entryDx=0;entryDy=0;entryPerimeter=0;" edge="1" parent="1" source="l6Lb7_MOzwRWu0EUbxVu-16" target="l6Lb7_MOzwRWu0EUbxVu-32">
          <mxGeometry relative="1" as="geometry">
            <mxPoint x="419" y="528" as="targetPoint" />
            <Array as="points">
              <mxPoint x="460" y="528" />
              <mxPoint x="460" y="354" />
            </Array>
          </mxGeometry>
        </mxCell>
        <mxCell id="l6Lb7_MOzwRWu0EUbxVu-30" value="" style="edgeStyle=orthogonalEdgeStyle;rounded=0;orthogonalLoop=1;jettySize=auto;html=1;" edge="1" parent="1" source="l6Lb7_MOzwRWu0EUbxVu-32" target="l6Lb7_MOzwRWu0EUbxVu-33">
          <mxGeometry relative="1" as="geometry">
            <mxPoint x="535" y="528" as="targetPoint" />
            <Array as="points">
              <mxPoint x="590" y="354" />
            </Array>
          </mxGeometry>
        </mxCell>
        <mxCell id="l6Lb7_MOzwRWu0EUbxVu-31" value="ไม่" style="edgeLabel;html=1;align=center;verticalAlign=middle;resizable=0;points=[];" vertex="1" connectable="0" parent="l6Lb7_MOzwRWu0EUbxVu-30">
          <mxGeometry x="-0.3115" y="3" relative="1" as="geometry">
            <mxPoint as="offset" />
          </mxGeometry>
        </mxCell>
        <mxCell id="l6Lb7_MOzwRWu0EUbxVu-32" value="Super&lt;br&gt;Admin ?" style="rhombus;whiteSpace=wrap;html=1;" vertex="1" parent="1">
          <mxGeometry x="476.25" y="318" width="66" height="72" as="geometry" />
        </mxCell>
        <mxCell id="l6Lb7_MOzwRWu0EUbxVu-33" value="ตรวจสอบสิทธิ์การใช้งาน Company นี้ไหม&lt;span style=&quot;font-size: medium; text-align: start;&quot;&gt;&lt;/span&gt;" style="rounded=1;whiteSpace=wrap;html=1;" vertex="1" parent="1">
          <mxGeometry x="535" y="508" width="110" height="42" as="geometry" />
        </mxCell>
        <mxCell id="l6Lb7_MOzwRWu0EUbxVu-34" value="มี ?" style="rhombus;whiteSpace=wrap;html=1;" vertex="1" parent="1">
          <mxGeometry x="557" y="590" width="66" height="72" as="geometry" />
        </mxCell>
        <mxCell id="l6Lb7_MOzwRWu0EUbxVu-35" value="" style="edgeStyle=orthogonalEdgeStyle;rounded=0;orthogonalLoop=1;jettySize=auto;html=1;" edge="1" parent="1" source="l6Lb7_MOzwRWu0EUbxVu-33" target="l6Lb7_MOzwRWu0EUbxVu-34">
          <mxGeometry relative="1" as="geometry" />
        </mxCell>
        <mxCell id="l6Lb7_MOzwRWu0EUbxVu-36" value="Company &lt;br&gt;มีในระบบ&lt;br&gt;ไหม ?" style="rhombus;whiteSpace=wrap;html=1;" vertex="1" parent="1">
          <mxGeometry x="545" y="720" width="90" height="80" as="geometry" />
        </mxCell>
        <mxCell id="l6Lb7_MOzwRWu0EUbxVu-37" value="" style="edgeStyle=orthogonalEdgeStyle;rounded=0;orthogonalLoop=1;jettySize=auto;html=1;" edge="1" parent="1" source="l6Lb7_MOzwRWu0EUbxVu-34" target="l6Lb7_MOzwRWu0EUbxVu-36">
          <mxGeometry relative="1" as="geometry" />
        </mxCell>
        <mxCell id="l6Lb7_MOzwRWu0EUbxVu-38" value="ใช่" style="edgeLabel;html=1;align=center;verticalAlign=middle;resizable=0;points=[];" vertex="1" connectable="0" parent="l6Lb7_MOzwRWu0EUbxVu-37">
          <mxGeometry x="-0.2859" relative="1" as="geometry">
            <mxPoint as="offset" />
          </mxGeometry>
        </mxCell>
        <mxCell id="l6Lb7_MOzwRWu0EUbxVu-39" style="edgeStyle=orthogonalEdgeStyle;rounded=0;orthogonalLoop=1;jettySize=auto;html=1;" edge="1" parent="1">
          <mxGeometry relative="1" as="geometry">
            <mxPoint x="737.5" y="626" as="sourcePoint" />
            <mxPoint x="760" y="626" as="targetPoint" />
          </mxGeometry>
        </mxCell>
        <mxCell id="l6Lb7_MOzwRWu0EUbxVu-40" style="edgeStyle=orthogonalEdgeStyle;rounded=0;orthogonalLoop=1;jettySize=auto;html=1;" edge="1" parent="1" source="l6Lb7_MOzwRWu0EUbxVu-34">
          <mxGeometry relative="1" as="geometry">
            <mxPoint x="660" y="626" as="targetPoint" />
          </mxGeometry>
        </mxCell>
        <mxCell id="l6Lb7_MOzwRWu0EUbxVu-41" value="ไม่" style="edgeLabel;html=1;align=center;verticalAlign=middle;resizable=0;points=[];" vertex="1" connectable="0" parent="l6Lb7_MOzwRWu0EUbxVu-40">
          <mxGeometry x="-0.0865" y="2" relative="1" as="geometry">
            <mxPoint as="offset" />
          </mxGeometry>
        </mxCell>
        <mxCell id="l6Lb7_MOzwRWu0EUbxVu-42" style="edgeStyle=orthogonalEdgeStyle;rounded=0;orthogonalLoop=1;jettySize=auto;html=1;" edge="1" parent="1" source="l6Lb7_MOzwRWu0EUbxVu-44" target="l6Lb7_MOzwRWu0EUbxVu-87">
          <mxGeometry relative="1" as="geometry" />
        </mxCell>
        <mxCell id="l6Lb7_MOzwRWu0EUbxVu-43" value="ใช่" style="edgeLabel;html=1;align=center;verticalAlign=middle;resizable=0;points=[];" vertex="1" connectable="0" parent="l6Lb7_MOzwRWu0EUbxVu-42">
          <mxGeometry x="-0.0994" relative="1" as="geometry">
            <mxPoint as="offset" />
          </mxGeometry>
        </mxCell>
        <mxCell id="l6Lb7_MOzwRWu0EUbxVu-44" value="Company &lt;br&gt;Active ?" style="rhombus;whiteSpace=wrap;html=1;" vertex="1" parent="1">
          <mxGeometry x="545" y="840" width="90" height="80" as="geometry" />
        </mxCell>
        <mxCell id="l6Lb7_MOzwRWu0EUbxVu-45" value="ใช่" style="edgeStyle=orthogonalEdgeStyle;rounded=0;orthogonalLoop=1;jettySize=auto;html=1;" edge="1" parent="1" source="l6Lb7_MOzwRWu0EUbxVu-36" target="l6Lb7_MOzwRWu0EUbxVu-44">
          <mxGeometry relative="1" as="geometry" />
        </mxCell>
        <mxCell id="l6Lb7_MOzwRWu0EUbxVu-46" value="" style="edgeStyle=orthogonalEdgeStyle;rounded=0;orthogonalLoop=1;jettySize=auto;html=1;" edge="1" parent="1" source="l6Lb7_MOzwRWu0EUbxVu-36">
          <mxGeometry relative="1" as="geometry">
            <mxPoint x="685" y="760" as="targetPoint" />
          </mxGeometry>
        </mxCell>
        <mxCell id="l6Lb7_MOzwRWu0EUbxVu-47" value="ไม่" style="edgeLabel;html=1;align=center;verticalAlign=middle;resizable=0;points=[];" vertex="1" connectable="0" parent="l6Lb7_MOzwRWu0EUbxVu-46">
          <mxGeometry x="-0.1127" relative="1" as="geometry">
            <mxPoint as="offset" />
          </mxGeometry>
        </mxCell>
        <mxCell id="l6Lb7_MOzwRWu0EUbxVu-48" value="" style="edgeStyle=orthogonalEdgeStyle;rounded=0;orthogonalLoop=1;jettySize=auto;html=1;" edge="1" parent="1" source="l6Lb7_MOzwRWu0EUbxVu-44" target="l6Lb7_MOzwRWu0EUbxVu-83">
          <mxGeometry relative="1" as="geometry">
            <mxPoint x="685" y="880" as="targetPoint" />
          </mxGeometry>
        </mxCell>
        <mxCell id="l6Lb7_MOzwRWu0EUbxVu-49" value="ไม่" style="edgeLabel;html=1;align=center;verticalAlign=middle;resizable=0;points=[];" vertex="1" connectable="0" parent="l6Lb7_MOzwRWu0EUbxVu-48">
          <mxGeometry x="-0.2152" y="2" relative="1" as="geometry">
            <mxPoint as="offset" />
          </mxGeometry>
        </mxCell>
        <mxCell id="l6Lb7_MOzwRWu0EUbxVu-50" style="edgeStyle=orthogonalEdgeStyle;rounded=0;orthogonalLoop=1;jettySize=auto;html=1;" edge="1" parent="1" source="l6Lb7_MOzwRWu0EUbxVu-32" target="l6Lb7_MOzwRWu0EUbxVu-87">
          <mxGeometry relative="1" as="geometry">
            <mxPoint x="452" y="860" as="targetPoint" />
          </mxGeometry>
        </mxCell>
        <mxCell id="l6Lb7_MOzwRWu0EUbxVu-51" value="ใช่" style="edgeLabel;html=1;align=center;verticalAlign=middle;resizable=0;points=[];" vertex="1" connectable="0" parent="l6Lb7_MOzwRWu0EUbxVu-50">
          <mxGeometry x="-0.3215" y="2" relative="1" as="geometry">
            <mxPoint as="offset" />
          </mxGeometry>
        </mxCell>
        <mxCell id="l6Lb7_MOzwRWu0EUbxVu-52" style="edgeStyle=orthogonalEdgeStyle;rounded=0;orthogonalLoop=1;jettySize=auto;html=1;entryX=1;entryY=0.5;entryDx=0;entryDy=0;" edge="1" parent="1" source="l6Lb7_MOzwRWu0EUbxVu-53" target="l6Lb7_MOzwRWu0EUbxVu-121">
          <mxGeometry relative="1" as="geometry" />
        </mxCell>
        <mxCell id="l6Lb7_MOzwRWu0EUbxVu-53" value="2" style="ellipse;whiteSpace=wrap;html=1;aspect=fixed;" vertex="1" parent="1">
          <mxGeometry x="698.75" y="970" width="50" height="50" as="geometry" />
        </mxCell>
        <mxCell id="l6Lb7_MOzwRWu0EUbxVu-54" style="edgeStyle=orthogonalEdgeStyle;rounded=0;orthogonalLoop=1;jettySize=auto;html=1;entryX=1;entryY=0.5;entryDx=0;entryDy=0;" edge="1" parent="1" source="l6Lb7_MOzwRWu0EUbxVu-73" target="l6Lb7_MOzwRWu0EUbxVu-53">
          <mxGeometry relative="1" as="geometry">
            <mxPoint x="785" y="780" as="targetPoint" />
            <Array as="points">
              <mxPoint x="910" y="692" />
              <mxPoint x="910" y="995" />
            </Array>
            <mxPoint x="800.0285714285715" y="646" as="sourcePoint" />
          </mxGeometry>
        </mxCell>
        <mxCell id="l6Lb7_MOzwRWu0EUbxVu-55" style="edgeStyle=orthogonalEdgeStyle;rounded=0;orthogonalLoop=1;jettySize=auto;html=1;entryX=0;entryY=0.5;entryDx=0;entryDy=0;" edge="1" parent="1" target="l6Lb7_MOzwRWu0EUbxVu-79">
          <mxGeometry relative="1" as="geometry">
            <Array as="points">
              <mxPoint x="780" y="760" />
              <mxPoint x="780" y="760" />
            </Array>
            <mxPoint x="762.5" y="760.037037037037" as="sourcePoint" />
          </mxGeometry>
        </mxCell>
        <mxCell id="l6Lb7_MOzwRWu0EUbxVu-56" value="" style="edgeStyle=orthogonalEdgeStyle;rounded=0;orthogonalLoop=1;jettySize=auto;html=1;entryX=0.5;entryY=0;entryDx=0;entryDy=0;" edge="1" parent="1" source="l6Lb7_MOzwRWu0EUbxVu-57" target="l6Lb7_MOzwRWu0EUbxVu-21">
          <mxGeometry relative="1" as="geometry" />
        </mxCell>
        <mxCell id="l6Lb7_MOzwRWu0EUbxVu-57" value="บันทึกข้อมูล&lt;span style=&quot;font-size: medium; text-align: start;&quot;&gt;&lt;/span&gt;" style="rounded=1;whiteSpace=wrap;html=1;" vertex="1" parent="1">
          <mxGeometry x="127.5" y="263" width="77.5" height="40" as="geometry" />
        </mxCell>
        <mxCell id="l6Lb7_MOzwRWu0EUbxVu-58" value="" style="edgeStyle=orthogonalEdgeStyle;rounded=0;orthogonalLoop=1;jettySize=auto;html=1;" edge="1" parent="1" source="l6Lb7_MOzwRWu0EUbxVu-11" target="l6Lb7_MOzwRWu0EUbxVu-61">
          <mxGeometry relative="1" as="geometry">
            <mxPoint x="159" y="338" as="targetPoint" />
            <mxPoint x="309" y="283" as="sourcePoint" />
          </mxGeometry>
        </mxCell>
        <mxCell id="l6Lb7_MOzwRWu0EUbxVu-59" value="ไม่" style="edgeLabel;html=1;align=center;verticalAlign=middle;resizable=0;points=[];" vertex="1" connectable="0" parent="l6Lb7_MOzwRWu0EUbxVu-58">
          <mxGeometry x="-0.6573" y="2" relative="1" as="geometry">
            <mxPoint as="offset" />
          </mxGeometry>
        </mxCell>
        <mxCell id="l6Lb7_MOzwRWu0EUbxVu-60" style="edgeStyle=orthogonalEdgeStyle;rounded=0;orthogonalLoop=1;jettySize=auto;html=1;" edge="1" parent="1" source="l6Lb7_MOzwRWu0EUbxVu-61" target="l6Lb7_MOzwRWu0EUbxVu-57">
          <mxGeometry relative="1" as="geometry" />
        </mxCell>
        <mxCell id="l6Lb7_MOzwRWu0EUbxVu-61" value="สร้างข้อมูล ActivityLog&lt;span style=&quot;font-size: medium; text-align: start;&quot;&gt;&lt;/span&gt;" style="rounded=1;whiteSpace=wrap;html=1;" vertex="1" parent="1">
          <mxGeometry x="230" y="263" width="77.5" height="40" as="geometry" />
        </mxCell>
        <mxCell id="l6Lb7_MOzwRWu0EUbxVu-62" style="edgeStyle=orthogonalEdgeStyle;rounded=0;orthogonalLoop=1;jettySize=auto;html=1;" edge="1" parent="1" source="l6Lb7_MOzwRWu0EUbxVu-63" target="l6Lb7_MOzwRWu0EUbxVu-65">
          <mxGeometry relative="1" as="geometry" />
        </mxCell>
        <mxCell id="l6Lb7_MOzwRWu0EUbxVu-63" value="สร้างข้อมูล ActivityLog&lt;span style=&quot;font-size: medium; text-align: start;&quot;&gt;&lt;/span&gt;" style="rounded=1;whiteSpace=wrap;html=1;" vertex="1" parent="1">
          <mxGeometry x="261.35" y="378" width="77.5" height="40" as="geometry" />
        </mxCell>
        <mxCell id="l6Lb7_MOzwRWu0EUbxVu-64" style="edgeStyle=orthogonalEdgeStyle;rounded=0;orthogonalLoop=1;jettySize=auto;html=1;entryX=0.5;entryY=0;entryDx=0;entryDy=0;" edge="1" parent="1" source="l6Lb7_MOzwRWu0EUbxVu-65" target="l6Lb7_MOzwRWu0EUbxVu-26">
          <mxGeometry relative="1" as="geometry">
            <Array as="points">
              <mxPoint x="194" y="438" />
            </Array>
          </mxGeometry>
        </mxCell>
        <mxCell id="l6Lb7_MOzwRWu0EUbxVu-65" value="บันทึกข้อมูล&lt;span style=&quot;font-size: medium; text-align: start;&quot;&gt;&lt;/span&gt;" style="rounded=1;whiteSpace=wrap;html=1;" vertex="1" parent="1">
          <mxGeometry x="170" y="378" width="77.5" height="40" as="geometry" />
        </mxCell>
        <mxCell id="l6Lb7_MOzwRWu0EUbxVu-66" value="" style="edgeStyle=orthogonalEdgeStyle;rounded=0;orthogonalLoop=1;jettySize=auto;html=1;" edge="1" parent="1" source="l6Lb7_MOzwRWu0EUbxVu-16" target="l6Lb7_MOzwRWu0EUbxVu-68">
          <mxGeometry relative="1" as="geometry">
            <mxPoint x="368" y="528" as="sourcePoint" />
            <mxPoint x="328" y="585" as="targetPoint" />
          </mxGeometry>
        </mxCell>
        <mxCell id="l6Lb7_MOzwRWu0EUbxVu-67" value="ใช่" style="edgeLabel;html=1;align=center;verticalAlign=middle;resizable=0;points=[];" vertex="1" connectable="0" parent="l6Lb7_MOzwRWu0EUbxVu-66">
          <mxGeometry x="-0.4608" y="1" relative="1" as="geometry">
            <mxPoint as="offset" />
          </mxGeometry>
        </mxCell>
        <mxCell id="l6Lb7_MOzwRWu0EUbxVu-68" value="สร้างข้อมูล ActivityLog&lt;span style=&quot;font-size: medium; text-align: start;&quot;&gt;&lt;/span&gt;" style="rounded=1;whiteSpace=wrap;html=1;" vertex="1" parent="1">
          <mxGeometry x="261.35" y="508" width="77.5" height="40" as="geometry" />
        </mxCell>
        <mxCell id="l6Lb7_MOzwRWu0EUbxVu-69" value="" style="edgeStyle=orthogonalEdgeStyle;rounded=0;orthogonalLoop=1;jettySize=auto;html=1;" edge="1" parent="1" source="l6Lb7_MOzwRWu0EUbxVu-70" target="l6Lb7_MOzwRWu0EUbxVu-23">
          <mxGeometry relative="1" as="geometry" />
        </mxCell>
        <mxCell id="l6Lb7_MOzwRWu0EUbxVu-70" value="บันทึกข้อมูล&lt;span style=&quot;font-size: medium; text-align: start;&quot;&gt;&lt;/span&gt;" style="rounded=1;whiteSpace=wrap;html=1;" vertex="1" parent="1">
          <mxGeometry x="263.5" y="580" width="77.5" height="40" as="geometry" />
        </mxCell>
        <mxCell id="l6Lb7_MOzwRWu0EUbxVu-71" style="edgeStyle=orthogonalEdgeStyle;rounded=0;orthogonalLoop=1;jettySize=auto;html=1;entryX=0.5;entryY=0;entryDx=0;entryDy=0;" edge="1" parent="1" source="l6Lb7_MOzwRWu0EUbxVu-72" target="l6Lb7_MOzwRWu0EUbxVu-73">
          <mxGeometry relative="1" as="geometry" />
        </mxCell>
        <mxCell id="l6Lb7_MOzwRWu0EUbxVu-72" value="บันทึกข้อมูล" style="rounded=1;whiteSpace=wrap;html=1;" vertex="1" parent="1">
          <mxGeometry x="760" y="606" width="77.5" height="40" as="geometry" />
        </mxCell>
        <mxCell id="l6Lb7_MOzwRWu0EUbxVu-73" value="rerturn Error Code&amp;nbsp;002&lt;span style=&quot;font-size: medium; text-align: start;&quot;&gt;&lt;/span&gt;" style="rounded=1;whiteSpace=wrap;html=1;" vertex="1" parent="1">
          <mxGeometry x="760" y="672" width="77.5" height="40" as="geometry" />
        </mxCell>
        <mxCell id="l6Lb7_MOzwRWu0EUbxVu-74" value="สร้างข้อมูล ActivityLog&lt;span style=&quot;font-size: medium; text-align: start;&quot;&gt;&lt;/span&gt;" style="rounded=1;whiteSpace=wrap;html=1;" vertex="1" parent="1">
          <mxGeometry x="660" y="606" width="77.5" height="40" as="geometry" />
        </mxCell>
        <mxCell id="l6Lb7_MOzwRWu0EUbxVu-75" style="edgeStyle=orthogonalEdgeStyle;rounded=0;orthogonalLoop=1;jettySize=auto;html=1;" edge="1" parent="1" source="l6Lb7_MOzwRWu0EUbxVu-76">
          <mxGeometry relative="1" as="geometry">
            <mxPoint x="910" y="820" as="targetPoint" />
          </mxGeometry>
        </mxCell>
        <mxCell id="l6Lb7_MOzwRWu0EUbxVu-76" value="rerturn Error Code&amp;nbsp;007&lt;span style=&quot;font-size: medium; text-align: start;&quot;&gt;&lt;/span&gt;" style="rounded=1;whiteSpace=wrap;html=1;" vertex="1" parent="1">
          <mxGeometry x="790" y="800" width="77.5" height="40" as="geometry" />
        </mxCell>
        <mxCell id="l6Lb7_MOzwRWu0EUbxVu-77" value="สร้างข้อมูล ActivityLog&lt;span style=&quot;font-size: medium; text-align: start;&quot;&gt;&lt;/span&gt;" style="rounded=1;whiteSpace=wrap;html=1;" vertex="1" parent="1">
          <mxGeometry x="685" y="740" width="77.5" height="40" as="geometry" />
        </mxCell>
        <mxCell id="l6Lb7_MOzwRWu0EUbxVu-78" style="edgeStyle=orthogonalEdgeStyle;rounded=0;orthogonalLoop=1;jettySize=auto;html=1;" edge="1" parent="1" source="l6Lb7_MOzwRWu0EUbxVu-79" target="l6Lb7_MOzwRWu0EUbxVu-76">
          <mxGeometry relative="1" as="geometry" />
        </mxCell>
        <mxCell id="l6Lb7_MOzwRWu0EUbxVu-79" value="บันทึกข้อมูล" style="rounded=1;whiteSpace=wrap;html=1;" vertex="1" parent="1">
          <mxGeometry x="790" y="740" width="77.5" height="40" as="geometry" />
        </mxCell>
        <mxCell id="l6Lb7_MOzwRWu0EUbxVu-80" style="edgeStyle=orthogonalEdgeStyle;rounded=0;orthogonalLoop=1;jettySize=auto;html=1;" edge="1" parent="1" source="l6Lb7_MOzwRWu0EUbxVu-81" target="l6Lb7_MOzwRWu0EUbxVu-53">
          <mxGeometry relative="1" as="geometry">
            <mxPoint x="829" y="990" as="targetPoint" />
          </mxGeometry>
        </mxCell>
        <mxCell id="l6Lb7_MOzwRWu0EUbxVu-81" value="rerturn Error Code&amp;nbsp;051&lt;span style=&quot;font-size: medium; text-align: start;&quot;&gt;&lt;/span&gt;" style="rounded=1;whiteSpace=wrap;html=1;" vertex="1" parent="1">
          <mxGeometry x="790" y="920" width="77.5" height="40" as="geometry" />
        </mxCell>
        <mxCell id="l6Lb7_MOzwRWu0EUbxVu-82" style="edgeStyle=orthogonalEdgeStyle;rounded=0;orthogonalLoop=1;jettySize=auto;html=1;entryX=-0.036;entryY=0.462;entryDx=0;entryDy=0;entryPerimeter=0;" edge="1" parent="1" source="l6Lb7_MOzwRWu0EUbxVu-83" target="l6Lb7_MOzwRWu0EUbxVu-85">
          <mxGeometry relative="1" as="geometry" />
        </mxCell>
        <mxCell id="l6Lb7_MOzwRWu0EUbxVu-83" value="สร้างข้อมูล ActivityLog&lt;span style=&quot;font-size: medium; text-align: start;&quot;&gt;&lt;/span&gt;" style="rounded=1;whiteSpace=wrap;html=1;" vertex="1" parent="1">
          <mxGeometry x="682.5" y="860" width="77.5" height="40" as="geometry" />
        </mxCell>
        <mxCell id="l6Lb7_MOzwRWu0EUbxVu-84" style="edgeStyle=orthogonalEdgeStyle;rounded=0;orthogonalLoop=1;jettySize=auto;html=1;" edge="1" parent="1" source="l6Lb7_MOzwRWu0EUbxVu-85" target="l6Lb7_MOzwRWu0EUbxVu-81">
          <mxGeometry relative="1" as="geometry" />
        </mxCell>
        <mxCell id="l6Lb7_MOzwRWu0EUbxVu-85" value="บันทึกข้อมูล" style="rounded=1;whiteSpace=wrap;html=1;" vertex="1" parent="1">
          <mxGeometry x="790" y="860" width="77.5" height="40" as="geometry" />
        </mxCell>
        <mxCell id="l6Lb7_MOzwRWu0EUbxVu-86" style="edgeStyle=orthogonalEdgeStyle;rounded=0;orthogonalLoop=1;jettySize=auto;html=1;entryX=1;entryY=0.5;entryDx=0;entryDy=0;" edge="1" parent="1" source="l6Lb7_MOzwRWu0EUbxVu-87" target="l6Lb7_MOzwRWu0EUbxVu-92">
          <mxGeometry relative="1" as="geometry">
            <Array as="points">
              <mxPoint x="454" y="1019" />
              <mxPoint x="454" y="1149" />
            </Array>
          </mxGeometry>
        </mxCell>
        <mxCell id="l6Lb7_MOzwRWu0EUbxVu-87" value="Picture?" style="rhombus;whiteSpace=wrap;html=1;" vertex="1" parent="1">
          <mxGeometry x="423.72" y="850" width="60" height="60" as="geometry" />
        </mxCell>
        <mxCell id="l6Lb7_MOzwRWu0EUbxVu-88" style="edgeStyle=orthogonalEdgeStyle;rounded=0;orthogonalLoop=1;jettySize=auto;html=1;entryX=0.5;entryY=0;entryDx=0;entryDy=0;" edge="1" parent="1" source="l6Lb7_MOzwRWu0EUbxVu-87" target="l6Lb7_MOzwRWu0EUbxVu-97">
          <mxGeometry relative="1" as="geometry">
            <mxPoint x="453.72" y="945" as="targetPoint" />
          </mxGeometry>
        </mxCell>
        <mxCell id="l6Lb7_MOzwRWu0EUbxVu-89" value="ใช่" style="edgeLabel;html=1;align=center;verticalAlign=middle;resizable=0;points=[];" vertex="1" connectable="0" parent="l6Lb7_MOzwRWu0EUbxVu-88">
          <mxGeometry x="-0.1526" y="1" relative="1" as="geometry">
            <mxPoint as="offset" />
          </mxGeometry>
        </mxCell>
        <mxCell id="l6Lb7_MOzwRWu0EUbxVu-90" value="" style="group" vertex="1" connectable="0" parent="1">
          <mxGeometry x="61.379999999999995" y="910" width="369.97" height="462.5" as="geometry" />
        </mxCell>
        <mxCell id="l6Lb7_MOzwRWu0EUbxVu-91" value="" style="group" vertex="1" connectable="0" parent="l6Lb7_MOzwRWu0EUbxVu-90">
          <mxGeometry x="273.72" y="217.5" width="96.25" height="177.5" as="geometry" />
        </mxCell>
        <mxCell id="l6Lb7_MOzwRWu0EUbxVu-92" value="สร้างข้อมูลนายทะเบียนหลักทรัพย์&lt;span style=&quot;font-size: medium; text-align: start;&quot;&gt;&lt;/span&gt;" style="rounded=1;whiteSpace=wrap;html=1;" vertex="1" parent="l6Lb7_MOzwRWu0EUbxVu-91">
          <mxGeometry x="-5" width="106.25" height="42.5" as="geometry" />
        </mxCell>
        <mxCell id="l6Lb7_MOzwRWu0EUbxVu-93" value="สร้างข้อมูล ActivityLog&lt;span style=&quot;font-size: medium; text-align: start;&quot;&gt;&lt;/span&gt;" style="rounded=1;whiteSpace=wrap;html=1;" vertex="1" parent="l6Lb7_MOzwRWu0EUbxVu-91">
          <mxGeometry x="6.25" y="67.5" width="77.5" height="40" as="geometry" />
        </mxCell>
        <mxCell id="l6Lb7_MOzwRWu0EUbxVu-94" value="" style="edgeStyle=orthogonalEdgeStyle;rounded=0;orthogonalLoop=1;jettySize=auto;html=1;entryX=0.543;entryY=-0.009;entryDx=0;entryDy=0;entryPerimeter=0;" edge="1" parent="l6Lb7_MOzwRWu0EUbxVu-91" source="l6Lb7_MOzwRWu0EUbxVu-92" target="l6Lb7_MOzwRWu0EUbxVu-93">
          <mxGeometry relative="1" as="geometry" />
        </mxCell>
        <mxCell id="l6Lb7_MOzwRWu0EUbxVu-95" value="บันทึกข้อมูล&lt;span style=&quot;font-size: medium; text-align: start;&quot;&gt;&lt;/span&gt;" style="rounded=1;whiteSpace=wrap;html=1;" vertex="1" parent="l6Lb7_MOzwRWu0EUbxVu-91">
          <mxGeometry x="6.25" y="137.5" width="77.5" height="40" as="geometry" />
        </mxCell>
        <mxCell id="l6Lb7_MOzwRWu0EUbxVu-96" value="" style="edgeStyle=orthogonalEdgeStyle;rounded=0;orthogonalLoop=1;jettySize=auto;html=1;" edge="1" parent="l6Lb7_MOzwRWu0EUbxVu-91" source="l6Lb7_MOzwRWu0EUbxVu-93" target="l6Lb7_MOzwRWu0EUbxVu-95">
          <mxGeometry relative="1" as="geometry" />
        </mxCell>
        <mxCell id="l6Lb7_MOzwRWu0EUbxVu-97" value="ไฟล&lt;br&gt;รูปภาพ ?" style="rhombus;whiteSpace=wrap;html=1;" vertex="1" parent="l6Lb7_MOzwRWu0EUbxVu-90">
          <mxGeometry x="246.22000000000003" width="65" height="65" as="geometry" />
        </mxCell>
        <mxCell id="l6Lb7_MOzwRWu0EUbxVu-98" style="edgeStyle=orthogonalEdgeStyle;rounded=0;orthogonalLoop=1;jettySize=auto;html=1;entryX=0.5;entryY=0;entryDx=0;entryDy=0;" edge="1" parent="l6Lb7_MOzwRWu0EUbxVu-90" source="l6Lb7_MOzwRWu0EUbxVu-100" target="l6Lb7_MOzwRWu0EUbxVu-92">
          <mxGeometry relative="1" as="geometry" />
        </mxCell>
        <mxCell id="l6Lb7_MOzwRWu0EUbxVu-99" value="ไม่" style="edgeLabel;html=1;align=center;verticalAlign=middle;resizable=0;points=[];" vertex="1" connectable="0" parent="l6Lb7_MOzwRWu0EUbxVu-98">
          <mxGeometry x="-0.6238" y="2" relative="1" as="geometry">
            <mxPoint as="offset" />
          </mxGeometry>
        </mxCell>
        <mxCell id="l6Lb7_MOzwRWu0EUbxVu-100" value="ขนาดไฟล&lt;br&gt;&amp;nbsp;&amp;gt; 50mb ?" style="rhombus;whiteSpace=wrap;html=1;" vertex="1" parent="l6Lb7_MOzwRWu0EUbxVu-90">
          <mxGeometry x="238.72000000000003" y="87.5" width="80" height="70" as="geometry" />
        </mxCell>
        <mxCell id="l6Lb7_MOzwRWu0EUbxVu-101" value="" style="edgeStyle=orthogonalEdgeStyle;rounded=0;orthogonalLoop=1;jettySize=auto;html=1;" edge="1" parent="l6Lb7_MOzwRWu0EUbxVu-90" source="l6Lb7_MOzwRWu0EUbxVu-97" target="l6Lb7_MOzwRWu0EUbxVu-100">
          <mxGeometry relative="1" as="geometry">
            <Array as="points">
              <mxPoint x="277.72" y="85.5" />
              <mxPoint x="278.72" y="85.5" />
            </Array>
          </mxGeometry>
        </mxCell>
        <mxCell id="l6Lb7_MOzwRWu0EUbxVu-102" value="ใช่" style="edgeLabel;html=1;align=center;verticalAlign=middle;resizable=0;points=[];" vertex="1" connectable="0" parent="l6Lb7_MOzwRWu0EUbxVu-101">
          <mxGeometry x="0.4745" y="1" relative="1" as="geometry">
            <mxPoint as="offset" />
          </mxGeometry>
        </mxCell>
        <mxCell id="l6Lb7_MOzwRWu0EUbxVu-103" value="rerturn Error Code 043&lt;span style=&quot;font-size: medium; text-align: start;&quot;&gt;&lt;/span&gt;" style="rounded=1;whiteSpace=wrap;html=1;" vertex="1" parent="l6Lb7_MOzwRWu0EUbxVu-90">
          <mxGeometry x="52.07000000000002" y="82.5" width="77.5" height="40" as="geometry" />
        </mxCell>
        <mxCell id="l6Lb7_MOzwRWu0EUbxVu-104" value="สร้างข้อมูล ActivityLog&lt;span style=&quot;font-size: medium; text-align: start;&quot;&gt;&lt;/span&gt;" style="rounded=1;whiteSpace=wrap;html=1;" vertex="1" parent="l6Lb7_MOzwRWu0EUbxVu-90">
          <mxGeometry x="143.72000000000003" y="12.5" width="77.5" height="40" as="geometry" />
        </mxCell>
        <mxCell id="l6Lb7_MOzwRWu0EUbxVu-105" style="edgeStyle=orthogonalEdgeStyle;rounded=0;orthogonalLoop=1;jettySize=auto;html=1;" edge="1" parent="l6Lb7_MOzwRWu0EUbxVu-90" source="l6Lb7_MOzwRWu0EUbxVu-97" target="l6Lb7_MOzwRWu0EUbxVu-104">
          <mxGeometry relative="1" as="geometry" />
        </mxCell>
        <mxCell id="l6Lb7_MOzwRWu0EUbxVu-106" value="ไม่" style="edgeLabel;html=1;align=center;verticalAlign=middle;resizable=0;points=[];" vertex="1" connectable="0" parent="l6Lb7_MOzwRWu0EUbxVu-105">
          <mxGeometry x="0.5378" relative="1" as="geometry">
            <mxPoint as="offset" />
          </mxGeometry>
        </mxCell>
        <mxCell id="l6Lb7_MOzwRWu0EUbxVu-107" value="" style="edgeStyle=orthogonalEdgeStyle;rounded=0;orthogonalLoop=1;jettySize=auto;html=1;entryX=0.5;entryY=0;entryDx=0;entryDy=0;" edge="1" parent="l6Lb7_MOzwRWu0EUbxVu-90" source="l6Lb7_MOzwRWu0EUbxVu-108" target="l6Lb7_MOzwRWu0EUbxVu-103">
          <mxGeometry relative="1" as="geometry" />
        </mxCell>
        <mxCell id="l6Lb7_MOzwRWu0EUbxVu-108" value="บันทึกข้อมูล&lt;span style=&quot;font-size: medium; text-align: start;&quot;&gt;&lt;/span&gt;" style="rounded=1;whiteSpace=wrap;html=1;" vertex="1" parent="l6Lb7_MOzwRWu0EUbxVu-90">
          <mxGeometry x="37.72000000000003" y="12.5" width="77.5" height="40" as="geometry" />
        </mxCell>
        <mxCell id="l6Lb7_MOzwRWu0EUbxVu-109" value="" style="edgeStyle=orthogonalEdgeStyle;rounded=0;orthogonalLoop=1;jettySize=auto;html=1;" edge="1" parent="l6Lb7_MOzwRWu0EUbxVu-90" source="l6Lb7_MOzwRWu0EUbxVu-104" target="l6Lb7_MOzwRWu0EUbxVu-108">
          <mxGeometry relative="1" as="geometry" />
        </mxCell>
        <mxCell id="l6Lb7_MOzwRWu0EUbxVu-110" value="rerturn Error Code 044&lt;span style=&quot;font-size: medium; text-align: start;&quot;&gt;&lt;/span&gt;" style="rounded=1;whiteSpace=wrap;html=1;" vertex="1" parent="l6Lb7_MOzwRWu0EUbxVu-90">
          <mxGeometry x="52.07000000000002" y="227.5" width="77.5" height="40" as="geometry" />
        </mxCell>
        <mxCell id="l6Lb7_MOzwRWu0EUbxVu-111" value="สร้างข้อมูล ActivityLog&lt;span style=&quot;font-size: medium; text-align: start;&quot;&gt;&lt;/span&gt;" style="rounded=1;whiteSpace=wrap;html=1;" vertex="1" parent="l6Lb7_MOzwRWu0EUbxVu-90">
          <mxGeometry x="153.72000000000003" y="157.5" width="77.5" height="40" as="geometry" />
        </mxCell>
        <mxCell id="l6Lb7_MOzwRWu0EUbxVu-112" style="edgeStyle=orthogonalEdgeStyle;rounded=0;orthogonalLoop=1;jettySize=auto;html=1;entryX=0.5;entryY=0;entryDx=0;entryDy=0;" edge="1" parent="l6Lb7_MOzwRWu0EUbxVu-90" source="l6Lb7_MOzwRWu0EUbxVu-100" target="l6Lb7_MOzwRWu0EUbxVu-111">
          <mxGeometry relative="1" as="geometry" />
        </mxCell>
        <mxCell id="l6Lb7_MOzwRWu0EUbxVu-113" value="ใช่" style="edgeLabel;html=1;align=center;verticalAlign=middle;resizable=0;points=[];" vertex="1" connectable="0" parent="l6Lb7_MOzwRWu0EUbxVu-112">
          <mxGeometry x="-0.6182" y="-1" relative="1" as="geometry">
            <mxPoint as="offset" />
          </mxGeometry>
        </mxCell>
        <mxCell id="l6Lb7_MOzwRWu0EUbxVu-114" style="edgeStyle=orthogonalEdgeStyle;rounded=0;orthogonalLoop=1;jettySize=auto;html=1;" edge="1" parent="l6Lb7_MOzwRWu0EUbxVu-90" source="l6Lb7_MOzwRWu0EUbxVu-115" target="l6Lb7_MOzwRWu0EUbxVu-110">
          <mxGeometry relative="1" as="geometry" />
        </mxCell>
        <mxCell id="l6Lb7_MOzwRWu0EUbxVu-115" value="บันทึกข้อมูล&lt;span style=&quot;font-size: medium; text-align: start;&quot;&gt;&lt;/span&gt;" style="rounded=1;whiteSpace=wrap;html=1;" vertex="1" parent="l6Lb7_MOzwRWu0EUbxVu-90">
          <mxGeometry x="52.07000000000002" y="157.5" width="77.5" height="40" as="geometry" />
        </mxCell>
        <mxCell id="l6Lb7_MOzwRWu0EUbxVu-116" style="edgeStyle=orthogonalEdgeStyle;rounded=0;orthogonalLoop=1;jettySize=auto;html=1;entryX=1;entryY=0.5;entryDx=0;entryDy=0;" edge="1" parent="l6Lb7_MOzwRWu0EUbxVu-90" source="l6Lb7_MOzwRWu0EUbxVu-111" target="l6Lb7_MOzwRWu0EUbxVu-115">
          <mxGeometry relative="1" as="geometry" />
        </mxCell>
        <mxCell id="l6Lb7_MOzwRWu0EUbxVu-117" value="2" style="ellipse;whiteSpace=wrap;html=1;aspect=fixed;" vertex="1" parent="l6Lb7_MOzwRWu0EUbxVu-90">
          <mxGeometry x="143.72000000000003" y="412.5" width="50" height="50" as="geometry" />
        </mxCell>
        <mxCell id="l6Lb7_MOzwRWu0EUbxVu-118" style="edgeStyle=orthogonalEdgeStyle;rounded=0;orthogonalLoop=1;jettySize=auto;html=1;entryX=0;entryY=0.5;entryDx=0;entryDy=0;" edge="1" parent="l6Lb7_MOzwRWu0EUbxVu-90" source="l6Lb7_MOzwRWu0EUbxVu-103" target="l6Lb7_MOzwRWu0EUbxVu-117">
          <mxGeometry relative="1" as="geometry">
            <Array as="points">
              <mxPoint y="102.5" />
              <mxPoint y="357.5" />
              <mxPoint x="60" y="357.5" />
              <mxPoint x="60" y="437.5" />
            </Array>
          </mxGeometry>
        </mxCell>
        <mxCell id="l6Lb7_MOzwRWu0EUbxVu-119" style="edgeStyle=orthogonalEdgeStyle;rounded=0;orthogonalLoop=1;jettySize=auto;html=1;entryX=1;entryY=0.5;entryDx=0;entryDy=0;" edge="1" parent="l6Lb7_MOzwRWu0EUbxVu-90" source="l6Lb7_MOzwRWu0EUbxVu-95" target="l6Lb7_MOzwRWu0EUbxVu-117">
          <mxGeometry relative="1" as="geometry" />
        </mxCell>
        <mxCell id="l6Lb7_MOzwRWu0EUbxVu-120" style="edgeStyle=orthogonalEdgeStyle;rounded=0;orthogonalLoop=1;jettySize=auto;html=1;entryX=-0.002;entryY=0.205;entryDx=0;entryDy=0;entryPerimeter=0;" edge="1" parent="l6Lb7_MOzwRWu0EUbxVu-90" source="l6Lb7_MOzwRWu0EUbxVu-110" target="l6Lb7_MOzwRWu0EUbxVu-117">
          <mxGeometry relative="1" as="geometry" />
        </mxCell>
        <mxCell id="l6Lb7_MOzwRWu0EUbxVu-121" value="สิ้นสุด" style="ellipse;whiteSpace=wrap;html=1;" vertex="1" parent="1">
          <mxGeometry x="364" y="1420" width="100" height="50" as="geometry" />
        </mxCell>
        <mxCell id="l6Lb7_MOzwRWu0EUbxVu-122" style="edgeStyle=orthogonalEdgeStyle;rounded=0;orthogonalLoop=1;jettySize=auto;html=1;entryX=0.5;entryY=0;entryDx=0;entryDy=0;" edge="1" parent="1" source="l6Lb7_MOzwRWu0EUbxVu-117" target="l6Lb7_MOzwRWu0EUbxVu-121">
          <mxGeometry relative="1" as="geometry">
            <Array as="points">
              <mxPoint x="230" y="1400" />
              <mxPoint x="414" y="1400" />
            </Array>
          </mxGeometry>
        </mxCell>
        <mxCell id="l6Lb7_MOzwRWu0EUbxVu-123" style="edgeStyle=orthogonalEdgeStyle;rounded=0;orthogonalLoop=1;jettySize=auto;html=1;" edge="1" parent="1" source="l6Lb7_MOzwRWu0EUbxVu-124" target="l6Lb7_MOzwRWu0EUbxVu-121">
          <mxGeometry relative="1" as="geometry">
            <Array as="points">
              <mxPoint x="190" y="1445" />
              <mxPoint x="190" y="1445" />
            </Array>
          </mxGeometry>
        </mxCell>
        <mxCell id="l6Lb7_MOzwRWu0EUbxVu-124" value="1" style="ellipse;whiteSpace=wrap;html=1;aspect=fixed;" vertex="1" parent="1">
          <mxGeometry x="75" y="1410" width="50" height="50" as="geometry" />
        </mxCell>
      </root>
    </mxGraphModel>
  </diagram>
  <diagram id="-H18gxZlYrrO3qQRKbhQ" name="หน้า-4">
    <mxGraphModel dx="1206" dy="1064" grid="1" gridSize="10" guides="1" tooltips="1" connect="1" arrows="1" fold="1" page="1" pageScale="1" pageWidth="827" pageHeight="1169" math="0" shadow="0">
      <root>
        <mxCell id="0" />
        <mxCell id="1" parent="0" />
        <mxCell id="v6izI4tqeKeCpCRLi0Cs-1" value="เริ่ม" style="ellipse;whiteSpace=wrap;html=1;" vertex="1" parent="1">
          <mxGeometry x="85" y="30" width="80" height="40" as="geometry" />
        </mxCell>
        <mxCell id="v6izI4tqeKeCpCRLi0Cs-2" value="ตรวจสอบสิทธิ์การใช้งาน" style="rounded=1;whiteSpace=wrap;html=1;" vertex="1" parent="1">
          <mxGeometry x="55" y="110" width="140" height="30" as="geometry" />
        </mxCell>
        <mxCell id="v6izI4tqeKeCpCRLi0Cs-3" value="" style="edgeStyle=orthogonalEdgeStyle;rounded=0;orthogonalLoop=1;jettySize=auto;html=1;" edge="1" parent="1" source="v6izI4tqeKeCpCRLi0Cs-1" target="v6izI4tqeKeCpCRLi0Cs-2">
          <mxGeometry relative="1" as="geometry" />
        </mxCell>
        <mxCell id="v6izI4tqeKeCpCRLi0Cs-4" value="มี ?" style="rhombus;whiteSpace=wrap;html=1;" vertex="1" parent="1">
          <mxGeometry x="95" y="170" width="60" height="60" as="geometry" />
        </mxCell>
        <mxCell id="v6izI4tqeKeCpCRLi0Cs-5" value="" style="edgeStyle=orthogonalEdgeStyle;rounded=0;orthogonalLoop=1;jettySize=auto;html=1;" edge="1" parent="1" source="v6izI4tqeKeCpCRLi0Cs-2" target="v6izI4tqeKeCpCRLi0Cs-4">
          <mxGeometry relative="1" as="geometry" />
        </mxCell>
        <mxCell id="v6izI4tqeKeCpCRLi0Cs-6" style="edgeStyle=orthogonalEdgeStyle;rounded=0;orthogonalLoop=1;jettySize=auto;html=1;entryX=-0.022;entryY=0.676;entryDx=0;entryDy=0;entryPerimeter=0;" edge="1" parent="1" source="v6izI4tqeKeCpCRLi0Cs-4" target="v6izI4tqeKeCpCRLi0Cs-19">
          <mxGeometry relative="1" as="geometry">
            <Array as="points">
              <mxPoint x="125" y="706" />
            </Array>
            <mxPoint x="280" y="740" as="targetPoint" />
          </mxGeometry>
        </mxCell>
        <mxCell id="v6izI4tqeKeCpCRLi0Cs-7" value="ไม่" style="edgeLabel;html=1;align=center;verticalAlign=middle;resizable=0;points=[];" vertex="1" connectable="0" parent="v6izI4tqeKeCpCRLi0Cs-6">
          <mxGeometry x="-0.8925" y="1" relative="1" as="geometry">
            <mxPoint as="offset" />
          </mxGeometry>
        </mxCell>
        <mxCell id="v6izI4tqeKeCpCRLi0Cs-8" value="ตรวจสอบ Account &lt;br&gt;สถานะการใช้งาน" style="rounded=1;whiteSpace=wrap;html=1;" vertex="1" parent="1">
          <mxGeometry x="271.35" y="179" width="170" height="40" as="geometry" />
        </mxCell>
        <mxCell id="v6izI4tqeKeCpCRLi0Cs-9" value="" style="edgeStyle=orthogonalEdgeStyle;rounded=0;orthogonalLoop=1;jettySize=auto;html=1;" edge="1" parent="1" source="v6izI4tqeKeCpCRLi0Cs-4" target="v6izI4tqeKeCpCRLi0Cs-8">
          <mxGeometry relative="1" as="geometry">
            <Array as="points">
              <mxPoint x="235" y="200" />
              <mxPoint x="235" y="200" />
            </Array>
          </mxGeometry>
        </mxCell>
        <mxCell id="v6izI4tqeKeCpCRLi0Cs-10" value="ใช่" style="edgeLabel;html=1;align=center;verticalAlign=middle;resizable=0;points=[];" vertex="1" connectable="0" parent="v6izI4tqeKeCpCRLi0Cs-9">
          <mxGeometry x="-0.7797" y="-1" relative="1" as="geometry">
            <mxPoint as="offset" />
          </mxGeometry>
        </mxCell>
        <mxCell id="v6izI4tqeKeCpCRLi0Cs-11" value="มีใน&lt;br&gt;ระบบ &lt;br&gt;?" style="rhombus;whiteSpace=wrap;html=1;" vertex="1" parent="1">
          <mxGeometry x="349" y="258" width="75" height="70" as="geometry" />
        </mxCell>
        <mxCell id="v6izI4tqeKeCpCRLi0Cs-12" value="" style="edgeStyle=orthogonalEdgeStyle;rounded=0;orthogonalLoop=1;jettySize=auto;html=1;" edge="1" parent="1" source="v6izI4tqeKeCpCRLi0Cs-8" target="v6izI4tqeKeCpCRLi0Cs-11">
          <mxGeometry relative="1" as="geometry" />
        </mxCell>
        <mxCell id="v6izI4tqeKeCpCRLi0Cs-13" value="status&lt;br style=&quot;border-color: var(--border-color);&quot;&gt;= 1 ?" style="rhombus;whiteSpace=wrap;html=1;" vertex="1" parent="1">
          <mxGeometry x="377" y="378" width="60" height="60" as="geometry" />
        </mxCell>
        <mxCell id="v6izI4tqeKeCpCRLi0Cs-14" value="" style="edgeStyle=orthogonalEdgeStyle;rounded=0;orthogonalLoop=1;jettySize=auto;html=1;" edge="1" parent="1" source="v6izI4tqeKeCpCRLi0Cs-11" target="v6izI4tqeKeCpCRLi0Cs-13">
          <mxGeometry relative="1" as="geometry" />
        </mxCell>
        <mxCell id="v6izI4tqeKeCpCRLi0Cs-15" value="ใช่" style="edgeLabel;html=1;align=center;verticalAlign=middle;resizable=0;points=[];" vertex="1" connectable="0" parent="v6izI4tqeKeCpCRLi0Cs-14">
          <mxGeometry x="-0.3254" y="2" relative="1" as="geometry">
            <mxPoint x="-2" as="offset" />
          </mxGeometry>
        </mxCell>
        <mxCell id="v6izI4tqeKeCpCRLi0Cs-16" value="Locked&lt;br style=&quot;border-color: var(--border-color);&quot;&gt;= 1 ?&amp;nbsp;" style="rhombus;whiteSpace=wrap;html=1;" vertex="1" parent="1">
          <mxGeometry x="377.75" y="508" width="60" height="60" as="geometry" />
        </mxCell>
        <mxCell id="v6izI4tqeKeCpCRLi0Cs-17" value="" style="edgeStyle=orthogonalEdgeStyle;rounded=0;orthogonalLoop=1;jettySize=auto;html=1;" edge="1" parent="1" source="v6izI4tqeKeCpCRLi0Cs-13" target="v6izI4tqeKeCpCRLi0Cs-16">
          <mxGeometry relative="1" as="geometry" />
        </mxCell>
        <mxCell id="v6izI4tqeKeCpCRLi0Cs-18" value="ไม่" style="edgeLabel;html=1;align=center;verticalAlign=middle;resizable=0;points=[];" vertex="1" connectable="0" parent="v6izI4tqeKeCpCRLi0Cs-17">
          <mxGeometry x="-0.3745" relative="1" as="geometry">
            <mxPoint as="offset" />
          </mxGeometry>
        </mxCell>
        <mxCell id="v6izI4tqeKeCpCRLi0Cs-19" value="1" style="ellipse;whiteSpace=wrap;html=1;aspect=fixed;" vertex="1" parent="1">
          <mxGeometry x="207.5" y="672" width="50" height="50" as="geometry" />
        </mxCell>
        <mxCell id="v6izI4tqeKeCpCRLi0Cs-20" style="edgeStyle=orthogonalEdgeStyle;rounded=0;orthogonalLoop=1;jettySize=auto;html=1;exitX=0.492;exitY=0.949;exitDx=0;exitDy=0;exitPerimeter=0;" edge="1" parent="1" source="v6izI4tqeKeCpCRLi0Cs-21" target="v6izI4tqeKeCpCRLi0Cs-19">
          <mxGeometry relative="1" as="geometry">
            <Array as="points">
              <mxPoint x="176" y="386" />
              <mxPoint x="160" y="386" />
              <mxPoint x="160" y="690" />
            </Array>
          </mxGeometry>
        </mxCell>
        <mxCell id="v6izI4tqeKeCpCRLi0Cs-21" value="rerturn Error Code&amp;nbsp;001&lt;span style=&quot;font-size: medium; text-align: start;&quot;&gt;&lt;/span&gt;" style="rounded=1;whiteSpace=wrap;html=1;" vertex="1" parent="1">
          <mxGeometry x="137.5" y="338" width="77.5" height="40" as="geometry" />
        </mxCell>
        <mxCell id="v6izI4tqeKeCpCRLi0Cs-22" style="edgeStyle=orthogonalEdgeStyle;rounded=0;orthogonalLoop=1;jettySize=auto;html=1;entryX=1;entryY=1;entryDx=0;entryDy=0;" edge="1" parent="1" source="v6izI4tqeKeCpCRLi0Cs-23" target="v6izI4tqeKeCpCRLi0Cs-19">
          <mxGeometry relative="1" as="geometry">
            <Array as="points">
              <mxPoint x="312" y="715" />
              <mxPoint x="254" y="715" />
            </Array>
          </mxGeometry>
        </mxCell>
        <mxCell id="v6izI4tqeKeCpCRLi0Cs-23" value="rerturn Error Code&amp;nbsp;011&lt;span style=&quot;font-size: medium; text-align: start;&quot;&gt;&lt;/span&gt;" style="rounded=1;whiteSpace=wrap;html=1;" vertex="1" parent="1">
          <mxGeometry x="273.5" y="656" width="77.5" height="40" as="geometry" />
        </mxCell>
        <mxCell id="v6izI4tqeKeCpCRLi0Cs-24" value="" style="edgeStyle=orthogonalEdgeStyle;rounded=0;orthogonalLoop=1;jettySize=auto;html=1;entryX=0.467;entryY=0.027;entryDx=0;entryDy=0;entryPerimeter=0;" edge="1" parent="1" source="v6izI4tqeKeCpCRLi0Cs-68" target="v6izI4tqeKeCpCRLi0Cs-70">
          <mxGeometry relative="1" as="geometry" />
        </mxCell>
        <mxCell id="v6izI4tqeKeCpCRLi0Cs-25" style="edgeStyle=orthogonalEdgeStyle;rounded=0;orthogonalLoop=1;jettySize=auto;html=1;" edge="1" parent="1" source="v6izI4tqeKeCpCRLi0Cs-26" target="v6izI4tqeKeCpCRLi0Cs-19">
          <mxGeometry relative="1" as="geometry">
            <mxPoint x="200" y="640" as="targetPoint" />
            <Array as="points">
              <mxPoint x="219" y="670" />
              <mxPoint x="219" y="670" />
            </Array>
          </mxGeometry>
        </mxCell>
        <mxCell id="v6izI4tqeKeCpCRLi0Cs-26" value="rerturn Error Code&amp;nbsp;004&lt;span style=&quot;font-size: medium; text-align: start;&quot;&gt;&lt;/span&gt;" style="rounded=1;whiteSpace=wrap;html=1;" vertex="1" parent="1">
          <mxGeometry x="180" y="478" width="77.5" height="40" as="geometry" />
        </mxCell>
        <mxCell id="v6izI4tqeKeCpCRLi0Cs-27" value="" style="edgeStyle=orthogonalEdgeStyle;rounded=0;orthogonalLoop=1;jettySize=auto;html=1;" edge="1" parent="1" source="v6izI4tqeKeCpCRLi0Cs-13" target="v6izI4tqeKeCpCRLi0Cs-63">
          <mxGeometry relative="1" as="geometry">
            <mxPoint x="310" y="390" as="targetPoint" />
          </mxGeometry>
        </mxCell>
        <mxCell id="v6izI4tqeKeCpCRLi0Cs-28" value="ใช่" style="edgeLabel;html=1;align=center;verticalAlign=middle;resizable=0;points=[];" vertex="1" connectable="0" parent="v6izI4tqeKeCpCRLi0Cs-27">
          <mxGeometry x="-0.4608" y="2" relative="1" as="geometry">
            <mxPoint as="offset" />
          </mxGeometry>
        </mxCell>
        <mxCell id="v6izI4tqeKeCpCRLi0Cs-29" value="" style="edgeStyle=orthogonalEdgeStyle;rounded=0;orthogonalLoop=1;jettySize=auto;html=1;entryX=0.1;entryY=0.5;entryDx=0;entryDy=0;entryPerimeter=0;" edge="1" parent="1" source="v6izI4tqeKeCpCRLi0Cs-16" target="v6izI4tqeKeCpCRLi0Cs-32">
          <mxGeometry relative="1" as="geometry">
            <mxPoint x="429" y="538" as="targetPoint" />
            <Array as="points">
              <mxPoint x="470" y="538" />
              <mxPoint x="470" y="364" />
            </Array>
          </mxGeometry>
        </mxCell>
        <mxCell id="v6izI4tqeKeCpCRLi0Cs-30" value="" style="edgeStyle=orthogonalEdgeStyle;rounded=0;orthogonalLoop=1;jettySize=auto;html=1;" edge="1" parent="1" source="v6izI4tqeKeCpCRLi0Cs-32" target="v6izI4tqeKeCpCRLi0Cs-33">
          <mxGeometry relative="1" as="geometry">
            <mxPoint x="545" y="538" as="targetPoint" />
            <Array as="points">
              <mxPoint x="600" y="364" />
            </Array>
          </mxGeometry>
        </mxCell>
        <mxCell id="v6izI4tqeKeCpCRLi0Cs-31" value="ไม่" style="edgeLabel;html=1;align=center;verticalAlign=middle;resizable=0;points=[];" vertex="1" connectable="0" parent="v6izI4tqeKeCpCRLi0Cs-30">
          <mxGeometry x="-0.3115" y="3" relative="1" as="geometry">
            <mxPoint as="offset" />
          </mxGeometry>
        </mxCell>
        <mxCell id="v6izI4tqeKeCpCRLi0Cs-32" value="Super&lt;br&gt;Admin ?" style="rhombus;whiteSpace=wrap;html=1;" vertex="1" parent="1">
          <mxGeometry x="486.25" y="328" width="66" height="72" as="geometry" />
        </mxCell>
        <mxCell id="v6izI4tqeKeCpCRLi0Cs-33" value="ตรวจสอบสิทธิ์การใช้งาน Company นี้ไหม&lt;span style=&quot;font-size: medium; text-align: start;&quot;&gt;&lt;/span&gt;" style="rounded=1;whiteSpace=wrap;html=1;" vertex="1" parent="1">
          <mxGeometry x="545" y="518" width="110" height="42" as="geometry" />
        </mxCell>
        <mxCell id="v6izI4tqeKeCpCRLi0Cs-34" value="มี ?" style="rhombus;whiteSpace=wrap;html=1;" vertex="1" parent="1">
          <mxGeometry x="567" y="600" width="66" height="72" as="geometry" />
        </mxCell>
        <mxCell id="v6izI4tqeKeCpCRLi0Cs-35" value="" style="edgeStyle=orthogonalEdgeStyle;rounded=0;orthogonalLoop=1;jettySize=auto;html=1;" edge="1" parent="1" source="v6izI4tqeKeCpCRLi0Cs-33" target="v6izI4tqeKeCpCRLi0Cs-34">
          <mxGeometry relative="1" as="geometry" />
        </mxCell>
        <mxCell id="v6izI4tqeKeCpCRLi0Cs-36" value="Company &lt;br&gt;มีในระบบ&lt;br&gt;ไหม ?" style="rhombus;whiteSpace=wrap;html=1;" vertex="1" parent="1">
          <mxGeometry x="555" y="730" width="90" height="80" as="geometry" />
        </mxCell>
        <mxCell id="v6izI4tqeKeCpCRLi0Cs-37" value="" style="edgeStyle=orthogonalEdgeStyle;rounded=0;orthogonalLoop=1;jettySize=auto;html=1;" edge="1" parent="1" source="v6izI4tqeKeCpCRLi0Cs-34" target="v6izI4tqeKeCpCRLi0Cs-36">
          <mxGeometry relative="1" as="geometry" />
        </mxCell>
        <mxCell id="v6izI4tqeKeCpCRLi0Cs-38" value="ใช่" style="edgeLabel;html=1;align=center;verticalAlign=middle;resizable=0;points=[];" vertex="1" connectable="0" parent="v6izI4tqeKeCpCRLi0Cs-37">
          <mxGeometry x="-0.2859" relative="1" as="geometry">
            <mxPoint as="offset" />
          </mxGeometry>
        </mxCell>
        <mxCell id="v6izI4tqeKeCpCRLi0Cs-39" style="edgeStyle=orthogonalEdgeStyle;rounded=0;orthogonalLoop=1;jettySize=auto;html=1;" edge="1" parent="1">
          <mxGeometry relative="1" as="geometry">
            <mxPoint x="747.5" y="636" as="sourcePoint" />
            <mxPoint x="770" y="636" as="targetPoint" />
          </mxGeometry>
        </mxCell>
        <mxCell id="v6izI4tqeKeCpCRLi0Cs-40" style="edgeStyle=orthogonalEdgeStyle;rounded=0;orthogonalLoop=1;jettySize=auto;html=1;" edge="1" parent="1" source="v6izI4tqeKeCpCRLi0Cs-34">
          <mxGeometry relative="1" as="geometry">
            <mxPoint x="670" y="636" as="targetPoint" />
          </mxGeometry>
        </mxCell>
        <mxCell id="v6izI4tqeKeCpCRLi0Cs-41" value="ไม่" style="edgeLabel;html=1;align=center;verticalAlign=middle;resizable=0;points=[];" vertex="1" connectable="0" parent="v6izI4tqeKeCpCRLi0Cs-40">
          <mxGeometry x="-0.0865" y="2" relative="1" as="geometry">
            <mxPoint as="offset" />
          </mxGeometry>
        </mxCell>
        <mxCell id="v6izI4tqeKeCpCRLi0Cs-42" style="edgeStyle=orthogonalEdgeStyle;rounded=0;orthogonalLoop=1;jettySize=auto;html=1;" edge="1" parent="1" source="v6izI4tqeKeCpCRLi0Cs-44" target="v6izI4tqeKeCpCRLi0Cs-87">
          <mxGeometry relative="1" as="geometry" />
        </mxCell>
        <mxCell id="v6izI4tqeKeCpCRLi0Cs-43" value="ใช่" style="edgeLabel;html=1;align=center;verticalAlign=middle;resizable=0;points=[];" vertex="1" connectable="0" parent="v6izI4tqeKeCpCRLi0Cs-42">
          <mxGeometry x="-0.0994" relative="1" as="geometry">
            <mxPoint as="offset" />
          </mxGeometry>
        </mxCell>
        <mxCell id="v6izI4tqeKeCpCRLi0Cs-44" value="Company &lt;br&gt;Active ?" style="rhombus;whiteSpace=wrap;html=1;" vertex="1" parent="1">
          <mxGeometry x="555" y="850" width="90" height="80" as="geometry" />
        </mxCell>
        <mxCell id="v6izI4tqeKeCpCRLi0Cs-45" value="ใช่" style="edgeStyle=orthogonalEdgeStyle;rounded=0;orthogonalLoop=1;jettySize=auto;html=1;" edge="1" parent="1" source="v6izI4tqeKeCpCRLi0Cs-36" target="v6izI4tqeKeCpCRLi0Cs-44">
          <mxGeometry relative="1" as="geometry" />
        </mxCell>
        <mxCell id="v6izI4tqeKeCpCRLi0Cs-46" value="" style="edgeStyle=orthogonalEdgeStyle;rounded=0;orthogonalLoop=1;jettySize=auto;html=1;" edge="1" parent="1" source="v6izI4tqeKeCpCRLi0Cs-36">
          <mxGeometry relative="1" as="geometry">
            <mxPoint x="695" y="770" as="targetPoint" />
          </mxGeometry>
        </mxCell>
        <mxCell id="v6izI4tqeKeCpCRLi0Cs-47" value="ไม่" style="edgeLabel;html=1;align=center;verticalAlign=middle;resizable=0;points=[];" vertex="1" connectable="0" parent="v6izI4tqeKeCpCRLi0Cs-46">
          <mxGeometry x="-0.1127" relative="1" as="geometry">
            <mxPoint as="offset" />
          </mxGeometry>
        </mxCell>
        <mxCell id="v6izI4tqeKeCpCRLi0Cs-48" value="" style="edgeStyle=orthogonalEdgeStyle;rounded=0;orthogonalLoop=1;jettySize=auto;html=1;" edge="1" parent="1" source="v6izI4tqeKeCpCRLi0Cs-44" target="v6izI4tqeKeCpCRLi0Cs-83">
          <mxGeometry relative="1" as="geometry">
            <mxPoint x="695" y="890" as="targetPoint" />
          </mxGeometry>
        </mxCell>
        <mxCell id="v6izI4tqeKeCpCRLi0Cs-49" value="ไม่" style="edgeLabel;html=1;align=center;verticalAlign=middle;resizable=0;points=[];" vertex="1" connectable="0" parent="v6izI4tqeKeCpCRLi0Cs-48">
          <mxGeometry x="-0.2152" y="2" relative="1" as="geometry">
            <mxPoint as="offset" />
          </mxGeometry>
        </mxCell>
        <mxCell id="v6izI4tqeKeCpCRLi0Cs-50" style="edgeStyle=orthogonalEdgeStyle;rounded=0;orthogonalLoop=1;jettySize=auto;html=1;entryX=0.5;entryY=0;entryDx=0;entryDy=0;" edge="1" parent="1" source="v6izI4tqeKeCpCRLi0Cs-32" target="v6izI4tqeKeCpCRLi0Cs-125">
          <mxGeometry relative="1" as="geometry">
            <mxPoint x="462" y="870" as="targetPoint" />
            <Array as="points">
              <mxPoint x="519" y="640" />
              <mxPoint x="432" y="640" />
            </Array>
          </mxGeometry>
        </mxCell>
        <mxCell id="v6izI4tqeKeCpCRLi0Cs-51" value="ใช่" style="edgeLabel;html=1;align=center;verticalAlign=middle;resizable=0;points=[];" vertex="1" connectable="0" parent="v6izI4tqeKeCpCRLi0Cs-50">
          <mxGeometry x="-0.3215" y="2" relative="1" as="geometry">
            <mxPoint as="offset" />
          </mxGeometry>
        </mxCell>
        <mxCell id="v6izI4tqeKeCpCRLi0Cs-52" style="edgeStyle=orthogonalEdgeStyle;rounded=0;orthogonalLoop=1;jettySize=auto;html=1;entryX=1;entryY=0.5;entryDx=0;entryDy=0;" edge="1" parent="1" source="v6izI4tqeKeCpCRLi0Cs-53" target="v6izI4tqeKeCpCRLi0Cs-121">
          <mxGeometry relative="1" as="geometry" />
        </mxCell>
        <mxCell id="v6izI4tqeKeCpCRLi0Cs-53" value="2" style="ellipse;whiteSpace=wrap;html=1;aspect=fixed;" vertex="1" parent="1">
          <mxGeometry x="708.75" y="980" width="50" height="50" as="geometry" />
        </mxCell>
        <mxCell id="v6izI4tqeKeCpCRLi0Cs-54" style="edgeStyle=orthogonalEdgeStyle;rounded=0;orthogonalLoop=1;jettySize=auto;html=1;entryX=1;entryY=0.5;entryDx=0;entryDy=0;" edge="1" parent="1" source="v6izI4tqeKeCpCRLi0Cs-73" target="v6izI4tqeKeCpCRLi0Cs-53">
          <mxGeometry relative="1" as="geometry">
            <mxPoint x="795" y="790" as="targetPoint" />
            <Array as="points">
              <mxPoint x="920" y="702" />
              <mxPoint x="920" y="1005" />
            </Array>
            <mxPoint x="810.0285714285715" y="656" as="sourcePoint" />
          </mxGeometry>
        </mxCell>
        <mxCell id="v6izI4tqeKeCpCRLi0Cs-55" style="edgeStyle=orthogonalEdgeStyle;rounded=0;orthogonalLoop=1;jettySize=auto;html=1;entryX=0;entryY=0.5;entryDx=0;entryDy=0;" edge="1" parent="1" target="v6izI4tqeKeCpCRLi0Cs-79">
          <mxGeometry relative="1" as="geometry">
            <Array as="points">
              <mxPoint x="790" y="770" />
              <mxPoint x="790" y="770" />
            </Array>
            <mxPoint x="772.5" y="770.037037037037" as="sourcePoint" />
          </mxGeometry>
        </mxCell>
        <mxCell id="v6izI4tqeKeCpCRLi0Cs-56" value="" style="edgeStyle=orthogonalEdgeStyle;rounded=0;orthogonalLoop=1;jettySize=auto;html=1;entryX=0.5;entryY=0;entryDx=0;entryDy=0;" edge="1" parent="1" source="v6izI4tqeKeCpCRLi0Cs-57" target="v6izI4tqeKeCpCRLi0Cs-21">
          <mxGeometry relative="1" as="geometry" />
        </mxCell>
        <mxCell id="v6izI4tqeKeCpCRLi0Cs-57" value="บันทึกข้อมูล&lt;span style=&quot;font-size: medium; text-align: start;&quot;&gt;&lt;/span&gt;" style="rounded=1;whiteSpace=wrap;html=1;" vertex="1" parent="1">
          <mxGeometry x="137.5" y="273" width="77.5" height="40" as="geometry" />
        </mxCell>
        <mxCell id="v6izI4tqeKeCpCRLi0Cs-58" value="" style="edgeStyle=orthogonalEdgeStyle;rounded=0;orthogonalLoop=1;jettySize=auto;html=1;" edge="1" parent="1" source="v6izI4tqeKeCpCRLi0Cs-11" target="v6izI4tqeKeCpCRLi0Cs-61">
          <mxGeometry relative="1" as="geometry">
            <mxPoint x="169" y="348" as="targetPoint" />
            <mxPoint x="319" y="293" as="sourcePoint" />
          </mxGeometry>
        </mxCell>
        <mxCell id="v6izI4tqeKeCpCRLi0Cs-59" value="ไม่" style="edgeLabel;html=1;align=center;verticalAlign=middle;resizable=0;points=[];" vertex="1" connectable="0" parent="v6izI4tqeKeCpCRLi0Cs-58">
          <mxGeometry x="-0.6573" y="2" relative="1" as="geometry">
            <mxPoint as="offset" />
          </mxGeometry>
        </mxCell>
        <mxCell id="v6izI4tqeKeCpCRLi0Cs-60" style="edgeStyle=orthogonalEdgeStyle;rounded=0;orthogonalLoop=1;jettySize=auto;html=1;" edge="1" parent="1" source="v6izI4tqeKeCpCRLi0Cs-61" target="v6izI4tqeKeCpCRLi0Cs-57">
          <mxGeometry relative="1" as="geometry" />
        </mxCell>
        <mxCell id="v6izI4tqeKeCpCRLi0Cs-61" value="สร้างข้อมูล ActivityLog&lt;span style=&quot;font-size: medium; text-align: start;&quot;&gt;&lt;/span&gt;" style="rounded=1;whiteSpace=wrap;html=1;" vertex="1" parent="1">
          <mxGeometry x="240" y="273" width="77.5" height="40" as="geometry" />
        </mxCell>
        <mxCell id="v6izI4tqeKeCpCRLi0Cs-62" style="edgeStyle=orthogonalEdgeStyle;rounded=0;orthogonalLoop=1;jettySize=auto;html=1;" edge="1" parent="1" source="v6izI4tqeKeCpCRLi0Cs-63" target="v6izI4tqeKeCpCRLi0Cs-65">
          <mxGeometry relative="1" as="geometry" />
        </mxCell>
        <mxCell id="v6izI4tqeKeCpCRLi0Cs-63" value="สร้างข้อมูล ActivityLog&lt;span style=&quot;font-size: medium; text-align: start;&quot;&gt;&lt;/span&gt;" style="rounded=1;whiteSpace=wrap;html=1;" vertex="1" parent="1">
          <mxGeometry x="271.35" y="388" width="77.5" height="40" as="geometry" />
        </mxCell>
        <mxCell id="v6izI4tqeKeCpCRLi0Cs-64" style="edgeStyle=orthogonalEdgeStyle;rounded=0;orthogonalLoop=1;jettySize=auto;html=1;entryX=0.5;entryY=0;entryDx=0;entryDy=0;" edge="1" parent="1" source="v6izI4tqeKeCpCRLi0Cs-65" target="v6izI4tqeKeCpCRLi0Cs-26">
          <mxGeometry relative="1" as="geometry">
            <Array as="points">
              <mxPoint x="204" y="448" />
            </Array>
          </mxGeometry>
        </mxCell>
        <mxCell id="v6izI4tqeKeCpCRLi0Cs-65" value="บันทึกข้อมูล&lt;span style=&quot;font-size: medium; text-align: start;&quot;&gt;&lt;/span&gt;" style="rounded=1;whiteSpace=wrap;html=1;" vertex="1" parent="1">
          <mxGeometry x="180" y="388" width="77.5" height="40" as="geometry" />
        </mxCell>
        <mxCell id="v6izI4tqeKeCpCRLi0Cs-66" value="" style="edgeStyle=orthogonalEdgeStyle;rounded=0;orthogonalLoop=1;jettySize=auto;html=1;" edge="1" parent="1" source="v6izI4tqeKeCpCRLi0Cs-16" target="v6izI4tqeKeCpCRLi0Cs-68">
          <mxGeometry relative="1" as="geometry">
            <mxPoint x="378" y="538" as="sourcePoint" />
            <mxPoint x="338" y="595" as="targetPoint" />
          </mxGeometry>
        </mxCell>
        <mxCell id="v6izI4tqeKeCpCRLi0Cs-67" value="ใช่" style="edgeLabel;html=1;align=center;verticalAlign=middle;resizable=0;points=[];" vertex="1" connectable="0" parent="v6izI4tqeKeCpCRLi0Cs-66">
          <mxGeometry x="-0.4608" y="1" relative="1" as="geometry">
            <mxPoint as="offset" />
          </mxGeometry>
        </mxCell>
        <mxCell id="v6izI4tqeKeCpCRLi0Cs-68" value="สร้างข้อมูล ActivityLog&lt;span style=&quot;font-size: medium; text-align: start;&quot;&gt;&lt;/span&gt;" style="rounded=1;whiteSpace=wrap;html=1;" vertex="1" parent="1">
          <mxGeometry x="271.35" y="518" width="77.5" height="40" as="geometry" />
        </mxCell>
        <mxCell id="v6izI4tqeKeCpCRLi0Cs-69" value="" style="edgeStyle=orthogonalEdgeStyle;rounded=0;orthogonalLoop=1;jettySize=auto;html=1;" edge="1" parent="1" source="v6izI4tqeKeCpCRLi0Cs-70" target="v6izI4tqeKeCpCRLi0Cs-23">
          <mxGeometry relative="1" as="geometry" />
        </mxCell>
        <mxCell id="v6izI4tqeKeCpCRLi0Cs-70" value="บันทึกข้อมูล&lt;span style=&quot;font-size: medium; text-align: start;&quot;&gt;&lt;/span&gt;" style="rounded=1;whiteSpace=wrap;html=1;" vertex="1" parent="1">
          <mxGeometry x="273.5" y="590" width="77.5" height="40" as="geometry" />
        </mxCell>
        <mxCell id="v6izI4tqeKeCpCRLi0Cs-71" style="edgeStyle=orthogonalEdgeStyle;rounded=0;orthogonalLoop=1;jettySize=auto;html=1;entryX=0.5;entryY=0;entryDx=0;entryDy=0;" edge="1" parent="1" source="v6izI4tqeKeCpCRLi0Cs-72" target="v6izI4tqeKeCpCRLi0Cs-73">
          <mxGeometry relative="1" as="geometry" />
        </mxCell>
        <mxCell id="v6izI4tqeKeCpCRLi0Cs-72" value="บันทึกข้อมูล" style="rounded=1;whiteSpace=wrap;html=1;" vertex="1" parent="1">
          <mxGeometry x="770" y="616" width="77.5" height="40" as="geometry" />
        </mxCell>
        <mxCell id="v6izI4tqeKeCpCRLi0Cs-73" value="rerturn Error Code&amp;nbsp;002&lt;span style=&quot;font-size: medium; text-align: start;&quot;&gt;&lt;/span&gt;" style="rounded=1;whiteSpace=wrap;html=1;" vertex="1" parent="1">
          <mxGeometry x="770" y="682" width="77.5" height="40" as="geometry" />
        </mxCell>
        <mxCell id="v6izI4tqeKeCpCRLi0Cs-74" value="สร้างข้อมูล ActivityLog&lt;span style=&quot;font-size: medium; text-align: start;&quot;&gt;&lt;/span&gt;" style="rounded=1;whiteSpace=wrap;html=1;" vertex="1" parent="1">
          <mxGeometry x="670" y="616" width="77.5" height="40" as="geometry" />
        </mxCell>
        <mxCell id="v6izI4tqeKeCpCRLi0Cs-75" style="edgeStyle=orthogonalEdgeStyle;rounded=0;orthogonalLoop=1;jettySize=auto;html=1;" edge="1" parent="1" source="v6izI4tqeKeCpCRLi0Cs-76">
          <mxGeometry relative="1" as="geometry">
            <mxPoint x="920" y="830" as="targetPoint" />
          </mxGeometry>
        </mxCell>
        <mxCell id="v6izI4tqeKeCpCRLi0Cs-76" value="rerturn Error Code&amp;nbsp;007&lt;span style=&quot;font-size: medium; text-align: start;&quot;&gt;&lt;/span&gt;" style="rounded=1;whiteSpace=wrap;html=1;" vertex="1" parent="1">
          <mxGeometry x="800" y="810" width="77.5" height="40" as="geometry" />
        </mxCell>
        <mxCell id="v6izI4tqeKeCpCRLi0Cs-77" value="สร้างข้อมูล ActivityLog&lt;span style=&quot;font-size: medium; text-align: start;&quot;&gt;&lt;/span&gt;" style="rounded=1;whiteSpace=wrap;html=1;" vertex="1" parent="1">
          <mxGeometry x="695" y="750" width="77.5" height="40" as="geometry" />
        </mxCell>
        <mxCell id="v6izI4tqeKeCpCRLi0Cs-78" style="edgeStyle=orthogonalEdgeStyle;rounded=0;orthogonalLoop=1;jettySize=auto;html=1;" edge="1" parent="1" source="v6izI4tqeKeCpCRLi0Cs-79" target="v6izI4tqeKeCpCRLi0Cs-76">
          <mxGeometry relative="1" as="geometry" />
        </mxCell>
        <mxCell id="v6izI4tqeKeCpCRLi0Cs-79" value="บันทึกข้อมูล" style="rounded=1;whiteSpace=wrap;html=1;" vertex="1" parent="1">
          <mxGeometry x="800" y="750" width="77.5" height="40" as="geometry" />
        </mxCell>
        <mxCell id="v6izI4tqeKeCpCRLi0Cs-80" style="edgeStyle=orthogonalEdgeStyle;rounded=0;orthogonalLoop=1;jettySize=auto;html=1;" edge="1" parent="1" source="v6izI4tqeKeCpCRLi0Cs-81" target="v6izI4tqeKeCpCRLi0Cs-53">
          <mxGeometry relative="1" as="geometry">
            <mxPoint x="839" y="1000" as="targetPoint" />
          </mxGeometry>
        </mxCell>
        <mxCell id="v6izI4tqeKeCpCRLi0Cs-81" value="rerturn Error Code&amp;nbsp;051&lt;span style=&quot;font-size: medium; text-align: start;&quot;&gt;&lt;/span&gt;" style="rounded=1;whiteSpace=wrap;html=1;" vertex="1" parent="1">
          <mxGeometry x="800" y="930" width="77.5" height="40" as="geometry" />
        </mxCell>
        <mxCell id="v6izI4tqeKeCpCRLi0Cs-82" style="edgeStyle=orthogonalEdgeStyle;rounded=0;orthogonalLoop=1;jettySize=auto;html=1;entryX=-0.036;entryY=0.462;entryDx=0;entryDy=0;entryPerimeter=0;" edge="1" parent="1" source="v6izI4tqeKeCpCRLi0Cs-83" target="v6izI4tqeKeCpCRLi0Cs-85">
          <mxGeometry relative="1" as="geometry" />
        </mxCell>
        <mxCell id="v6izI4tqeKeCpCRLi0Cs-83" value="สร้างข้อมูล ActivityLog&lt;span style=&quot;font-size: medium; text-align: start;&quot;&gt;&lt;/span&gt;" style="rounded=1;whiteSpace=wrap;html=1;" vertex="1" parent="1">
          <mxGeometry x="692.5" y="870" width="77.5" height="40" as="geometry" />
        </mxCell>
        <mxCell id="v6izI4tqeKeCpCRLi0Cs-84" style="edgeStyle=orthogonalEdgeStyle;rounded=0;orthogonalLoop=1;jettySize=auto;html=1;" edge="1" parent="1" source="v6izI4tqeKeCpCRLi0Cs-85" target="v6izI4tqeKeCpCRLi0Cs-81">
          <mxGeometry relative="1" as="geometry" />
        </mxCell>
        <mxCell id="v6izI4tqeKeCpCRLi0Cs-85" value="บันทึกข้อมูล" style="rounded=1;whiteSpace=wrap;html=1;" vertex="1" parent="1">
          <mxGeometry x="800" y="870" width="77.5" height="40" as="geometry" />
        </mxCell>
        <mxCell id="v6izI4tqeKeCpCRLi0Cs-86" style="edgeStyle=orthogonalEdgeStyle;rounded=0;orthogonalLoop=1;jettySize=auto;html=1;entryX=1;entryY=0.5;entryDx=0;entryDy=0;" edge="1" parent="1" source="v6izI4tqeKeCpCRLi0Cs-87" target="v6izI4tqeKeCpCRLi0Cs-92">
          <mxGeometry relative="1" as="geometry">
            <Array as="points">
              <mxPoint x="464" y="1029" />
              <mxPoint x="464" y="1159" />
            </Array>
          </mxGeometry>
        </mxCell>
        <mxCell id="v6izI4tqeKeCpCRLi0Cs-87" value="Picture?" style="rhombus;whiteSpace=wrap;html=1;" vertex="1" parent="1">
          <mxGeometry x="433.72" y="860" width="60" height="60" as="geometry" />
        </mxCell>
        <mxCell id="v6izI4tqeKeCpCRLi0Cs-88" style="edgeStyle=orthogonalEdgeStyle;rounded=0;orthogonalLoop=1;jettySize=auto;html=1;entryX=0.5;entryY=0;entryDx=0;entryDy=0;" edge="1" parent="1" source="v6izI4tqeKeCpCRLi0Cs-87" target="v6izI4tqeKeCpCRLi0Cs-97">
          <mxGeometry relative="1" as="geometry">
            <mxPoint x="463.72" y="955" as="targetPoint" />
          </mxGeometry>
        </mxCell>
        <mxCell id="v6izI4tqeKeCpCRLi0Cs-89" value="ใช่" style="edgeLabel;html=1;align=center;verticalAlign=middle;resizable=0;points=[];" vertex="1" connectable="0" parent="v6izI4tqeKeCpCRLi0Cs-88">
          <mxGeometry x="-0.1526" y="1" relative="1" as="geometry">
            <mxPoint as="offset" />
          </mxGeometry>
        </mxCell>
        <mxCell id="v6izI4tqeKeCpCRLi0Cs-90" value="" style="group" vertex="1" connectable="0" parent="1">
          <mxGeometry x="71.38" y="920" width="369.97" height="462.5" as="geometry" />
        </mxCell>
        <mxCell id="v6izI4tqeKeCpCRLi0Cs-91" value="" style="group" vertex="1" connectable="0" parent="v6izI4tqeKeCpCRLi0Cs-90">
          <mxGeometry x="273.72" y="217.5" width="96.25" height="177.5" as="geometry" />
        </mxCell>
        <mxCell id="v6izI4tqeKeCpCRLi0Cs-92" value="แก้ไขข้อมูลนักลงทุนสัมพันธ์&lt;span style=&quot;font-size: medium; text-align: start;&quot;&gt;&lt;/span&gt;" style="rounded=1;whiteSpace=wrap;html=1;" vertex="1" parent="v6izI4tqeKeCpCRLi0Cs-91">
          <mxGeometry x="-5" width="106.25" height="42.5" as="geometry" />
        </mxCell>
        <mxCell id="v6izI4tqeKeCpCRLi0Cs-93" value="สร้างข้อมูล ActivityLog&lt;span style=&quot;font-size: medium; text-align: start;&quot;&gt;&lt;/span&gt;" style="rounded=1;whiteSpace=wrap;html=1;" vertex="1" parent="v6izI4tqeKeCpCRLi0Cs-91">
          <mxGeometry x="6.25" y="67.5" width="77.5" height="40" as="geometry" />
        </mxCell>
        <mxCell id="v6izI4tqeKeCpCRLi0Cs-94" value="" style="edgeStyle=orthogonalEdgeStyle;rounded=0;orthogonalLoop=1;jettySize=auto;html=1;entryX=0.543;entryY=-0.009;entryDx=0;entryDy=0;entryPerimeter=0;" edge="1" parent="v6izI4tqeKeCpCRLi0Cs-91" source="v6izI4tqeKeCpCRLi0Cs-92" target="v6izI4tqeKeCpCRLi0Cs-93">
          <mxGeometry relative="1" as="geometry" />
        </mxCell>
        <mxCell id="v6izI4tqeKeCpCRLi0Cs-95" value="บันทึกข้อมูล&lt;span style=&quot;font-size: medium; text-align: start;&quot;&gt;&lt;/span&gt;" style="rounded=1;whiteSpace=wrap;html=1;" vertex="1" parent="v6izI4tqeKeCpCRLi0Cs-91">
          <mxGeometry x="6.25" y="137.5" width="77.5" height="40" as="geometry" />
        </mxCell>
        <mxCell id="v6izI4tqeKeCpCRLi0Cs-96" value="" style="edgeStyle=orthogonalEdgeStyle;rounded=0;orthogonalLoop=1;jettySize=auto;html=1;" edge="1" parent="v6izI4tqeKeCpCRLi0Cs-91" source="v6izI4tqeKeCpCRLi0Cs-93" target="v6izI4tqeKeCpCRLi0Cs-95">
          <mxGeometry relative="1" as="geometry" />
        </mxCell>
        <mxCell id="v6izI4tqeKeCpCRLi0Cs-97" value="ไฟล&lt;br&gt;รูปภาพ ?" style="rhombus;whiteSpace=wrap;html=1;" vertex="1" parent="v6izI4tqeKeCpCRLi0Cs-90">
          <mxGeometry x="246.22000000000003" width="65" height="65" as="geometry" />
        </mxCell>
        <mxCell id="v6izI4tqeKeCpCRLi0Cs-98" style="edgeStyle=orthogonalEdgeStyle;rounded=0;orthogonalLoop=1;jettySize=auto;html=1;entryX=0.5;entryY=0;entryDx=0;entryDy=0;" edge="1" parent="v6izI4tqeKeCpCRLi0Cs-90" source="v6izI4tqeKeCpCRLi0Cs-100" target="v6izI4tqeKeCpCRLi0Cs-92">
          <mxGeometry relative="1" as="geometry" />
        </mxCell>
        <mxCell id="v6izI4tqeKeCpCRLi0Cs-99" value="ไม่" style="edgeLabel;html=1;align=center;verticalAlign=middle;resizable=0;points=[];" vertex="1" connectable="0" parent="v6izI4tqeKeCpCRLi0Cs-98">
          <mxGeometry x="-0.6238" y="2" relative="1" as="geometry">
            <mxPoint as="offset" />
          </mxGeometry>
        </mxCell>
        <mxCell id="v6izI4tqeKeCpCRLi0Cs-100" value="ขนาดไฟล&lt;br&gt;&amp;nbsp;&amp;gt; 50mb ?" style="rhombus;whiteSpace=wrap;html=1;" vertex="1" parent="v6izI4tqeKeCpCRLi0Cs-90">
          <mxGeometry x="238.72000000000003" y="87.5" width="80" height="70" as="geometry" />
        </mxCell>
        <mxCell id="v6izI4tqeKeCpCRLi0Cs-101" value="" style="edgeStyle=orthogonalEdgeStyle;rounded=0;orthogonalLoop=1;jettySize=auto;html=1;" edge="1" parent="v6izI4tqeKeCpCRLi0Cs-90" source="v6izI4tqeKeCpCRLi0Cs-97" target="v6izI4tqeKeCpCRLi0Cs-100">
          <mxGeometry relative="1" as="geometry">
            <Array as="points">
              <mxPoint x="277.72" y="85.5" />
              <mxPoint x="278.72" y="85.5" />
            </Array>
          </mxGeometry>
        </mxCell>
        <mxCell id="v6izI4tqeKeCpCRLi0Cs-102" value="ใช่" style="edgeLabel;html=1;align=center;verticalAlign=middle;resizable=0;points=[];" vertex="1" connectable="0" parent="v6izI4tqeKeCpCRLi0Cs-101">
          <mxGeometry x="0.4745" y="1" relative="1" as="geometry">
            <mxPoint as="offset" />
          </mxGeometry>
        </mxCell>
        <mxCell id="v6izI4tqeKeCpCRLi0Cs-103" value="rerturn Error Code 043&lt;span style=&quot;font-size: medium; text-align: start;&quot;&gt;&lt;/span&gt;" style="rounded=1;whiteSpace=wrap;html=1;" vertex="1" parent="v6izI4tqeKeCpCRLi0Cs-90">
          <mxGeometry x="52.07000000000002" y="82.5" width="77.5" height="40" as="geometry" />
        </mxCell>
        <mxCell id="v6izI4tqeKeCpCRLi0Cs-104" value="สร้างข้อมูล ActivityLog&lt;span style=&quot;font-size: medium; text-align: start;&quot;&gt;&lt;/span&gt;" style="rounded=1;whiteSpace=wrap;html=1;" vertex="1" parent="v6izI4tqeKeCpCRLi0Cs-90">
          <mxGeometry x="143.72000000000003" y="12.5" width="77.5" height="40" as="geometry" />
        </mxCell>
        <mxCell id="v6izI4tqeKeCpCRLi0Cs-105" style="edgeStyle=orthogonalEdgeStyle;rounded=0;orthogonalLoop=1;jettySize=auto;html=1;" edge="1" parent="v6izI4tqeKeCpCRLi0Cs-90" source="v6izI4tqeKeCpCRLi0Cs-97" target="v6izI4tqeKeCpCRLi0Cs-104">
          <mxGeometry relative="1" as="geometry" />
        </mxCell>
        <mxCell id="v6izI4tqeKeCpCRLi0Cs-106" value="ไม่" style="edgeLabel;html=1;align=center;verticalAlign=middle;resizable=0;points=[];" vertex="1" connectable="0" parent="v6izI4tqeKeCpCRLi0Cs-105">
          <mxGeometry x="0.5378" relative="1" as="geometry">
            <mxPoint as="offset" />
          </mxGeometry>
        </mxCell>
        <mxCell id="v6izI4tqeKeCpCRLi0Cs-107" value="" style="edgeStyle=orthogonalEdgeStyle;rounded=0;orthogonalLoop=1;jettySize=auto;html=1;entryX=0.5;entryY=0;entryDx=0;entryDy=0;" edge="1" parent="v6izI4tqeKeCpCRLi0Cs-90" source="v6izI4tqeKeCpCRLi0Cs-108" target="v6izI4tqeKeCpCRLi0Cs-103">
          <mxGeometry relative="1" as="geometry" />
        </mxCell>
        <mxCell id="v6izI4tqeKeCpCRLi0Cs-108" value="บันทึกข้อมูล&lt;span style=&quot;font-size: medium; text-align: start;&quot;&gt;&lt;/span&gt;" style="rounded=1;whiteSpace=wrap;html=1;" vertex="1" parent="v6izI4tqeKeCpCRLi0Cs-90">
          <mxGeometry x="37.72000000000003" y="12.5" width="77.5" height="40" as="geometry" />
        </mxCell>
        <mxCell id="v6izI4tqeKeCpCRLi0Cs-109" value="" style="edgeStyle=orthogonalEdgeStyle;rounded=0;orthogonalLoop=1;jettySize=auto;html=1;" edge="1" parent="v6izI4tqeKeCpCRLi0Cs-90" source="v6izI4tqeKeCpCRLi0Cs-104" target="v6izI4tqeKeCpCRLi0Cs-108">
          <mxGeometry relative="1" as="geometry" />
        </mxCell>
        <mxCell id="v6izI4tqeKeCpCRLi0Cs-110" value="rerturn Error Code 044&lt;span style=&quot;font-size: medium; text-align: start;&quot;&gt;&lt;/span&gt;" style="rounded=1;whiteSpace=wrap;html=1;" vertex="1" parent="v6izI4tqeKeCpCRLi0Cs-90">
          <mxGeometry x="52.07000000000002" y="227.5" width="77.5" height="40" as="geometry" />
        </mxCell>
        <mxCell id="v6izI4tqeKeCpCRLi0Cs-111" value="สร้างข้อมูล ActivityLog&lt;span style=&quot;font-size: medium; text-align: start;&quot;&gt;&lt;/span&gt;" style="rounded=1;whiteSpace=wrap;html=1;" vertex="1" parent="v6izI4tqeKeCpCRLi0Cs-90">
          <mxGeometry x="153.72000000000003" y="157.5" width="77.5" height="40" as="geometry" />
        </mxCell>
        <mxCell id="v6izI4tqeKeCpCRLi0Cs-112" style="edgeStyle=orthogonalEdgeStyle;rounded=0;orthogonalLoop=1;jettySize=auto;html=1;entryX=0.5;entryY=0;entryDx=0;entryDy=0;" edge="1" parent="v6izI4tqeKeCpCRLi0Cs-90" source="v6izI4tqeKeCpCRLi0Cs-100" target="v6izI4tqeKeCpCRLi0Cs-111">
          <mxGeometry relative="1" as="geometry" />
        </mxCell>
        <mxCell id="v6izI4tqeKeCpCRLi0Cs-113" value="ใช่" style="edgeLabel;html=1;align=center;verticalAlign=middle;resizable=0;points=[];" vertex="1" connectable="0" parent="v6izI4tqeKeCpCRLi0Cs-112">
          <mxGeometry x="-0.6182" y="-1" relative="1" as="geometry">
            <mxPoint as="offset" />
          </mxGeometry>
        </mxCell>
        <mxCell id="v6izI4tqeKeCpCRLi0Cs-114" style="edgeStyle=orthogonalEdgeStyle;rounded=0;orthogonalLoop=1;jettySize=auto;html=1;" edge="1" parent="v6izI4tqeKeCpCRLi0Cs-90" source="v6izI4tqeKeCpCRLi0Cs-115" target="v6izI4tqeKeCpCRLi0Cs-110">
          <mxGeometry relative="1" as="geometry" />
        </mxCell>
        <mxCell id="v6izI4tqeKeCpCRLi0Cs-115" value="บันทึกข้อมูล&lt;span style=&quot;font-size: medium; text-align: start;&quot;&gt;&lt;/span&gt;" style="rounded=1;whiteSpace=wrap;html=1;" vertex="1" parent="v6izI4tqeKeCpCRLi0Cs-90">
          <mxGeometry x="52.07000000000002" y="157.5" width="77.5" height="40" as="geometry" />
        </mxCell>
        <mxCell id="v6izI4tqeKeCpCRLi0Cs-116" style="edgeStyle=orthogonalEdgeStyle;rounded=0;orthogonalLoop=1;jettySize=auto;html=1;entryX=1;entryY=0.5;entryDx=0;entryDy=0;" edge="1" parent="v6izI4tqeKeCpCRLi0Cs-90" source="v6izI4tqeKeCpCRLi0Cs-111" target="v6izI4tqeKeCpCRLi0Cs-115">
          <mxGeometry relative="1" as="geometry" />
        </mxCell>
        <mxCell id="v6izI4tqeKeCpCRLi0Cs-117" value="2" style="ellipse;whiteSpace=wrap;html=1;aspect=fixed;" vertex="1" parent="v6izI4tqeKeCpCRLi0Cs-90">
          <mxGeometry x="143.72000000000003" y="412.5" width="50" height="50" as="geometry" />
        </mxCell>
        <mxCell id="v6izI4tqeKeCpCRLi0Cs-118" style="edgeStyle=orthogonalEdgeStyle;rounded=0;orthogonalLoop=1;jettySize=auto;html=1;entryX=0;entryY=0.5;entryDx=0;entryDy=0;" edge="1" parent="v6izI4tqeKeCpCRLi0Cs-90" source="v6izI4tqeKeCpCRLi0Cs-103" target="v6izI4tqeKeCpCRLi0Cs-117">
          <mxGeometry relative="1" as="geometry">
            <Array as="points">
              <mxPoint y="102.5" />
              <mxPoint y="357.5" />
              <mxPoint x="60" y="357.5" />
              <mxPoint x="60" y="437.5" />
            </Array>
          </mxGeometry>
        </mxCell>
        <mxCell id="v6izI4tqeKeCpCRLi0Cs-119" style="edgeStyle=orthogonalEdgeStyle;rounded=0;orthogonalLoop=1;jettySize=auto;html=1;entryX=1;entryY=0.5;entryDx=0;entryDy=0;" edge="1" parent="v6izI4tqeKeCpCRLi0Cs-90" source="v6izI4tqeKeCpCRLi0Cs-95" target="v6izI4tqeKeCpCRLi0Cs-117">
          <mxGeometry relative="1" as="geometry" />
        </mxCell>
        <mxCell id="v6izI4tqeKeCpCRLi0Cs-120" style="edgeStyle=orthogonalEdgeStyle;rounded=0;orthogonalLoop=1;jettySize=auto;html=1;entryX=-0.002;entryY=0.205;entryDx=0;entryDy=0;entryPerimeter=0;" edge="1" parent="v6izI4tqeKeCpCRLi0Cs-90" source="v6izI4tqeKeCpCRLi0Cs-110" target="v6izI4tqeKeCpCRLi0Cs-117">
          <mxGeometry relative="1" as="geometry" />
        </mxCell>
        <mxCell id="v6izI4tqeKeCpCRLi0Cs-121" value="สิ้นสุด" style="ellipse;whiteSpace=wrap;html=1;" vertex="1" parent="1">
          <mxGeometry x="374" y="1430" width="100" height="50" as="geometry" />
        </mxCell>
        <mxCell id="v6izI4tqeKeCpCRLi0Cs-122" style="edgeStyle=orthogonalEdgeStyle;rounded=0;orthogonalLoop=1;jettySize=auto;html=1;entryX=0.5;entryY=0;entryDx=0;entryDy=0;" edge="1" parent="1" source="v6izI4tqeKeCpCRLi0Cs-117" target="v6izI4tqeKeCpCRLi0Cs-121">
          <mxGeometry relative="1" as="geometry">
            <Array as="points">
              <mxPoint x="240" y="1410" />
              <mxPoint x="424" y="1410" />
            </Array>
          </mxGeometry>
        </mxCell>
        <mxCell id="v6izI4tqeKeCpCRLi0Cs-123" style="edgeStyle=orthogonalEdgeStyle;rounded=0;orthogonalLoop=1;jettySize=auto;html=1;" edge="1" parent="1" source="v6izI4tqeKeCpCRLi0Cs-124" target="v6izI4tqeKeCpCRLi0Cs-121">
          <mxGeometry relative="1" as="geometry">
            <Array as="points">
              <mxPoint x="200" y="1455" />
              <mxPoint x="200" y="1455" />
            </Array>
          </mxGeometry>
        </mxCell>
        <mxCell id="v6izI4tqeKeCpCRLi0Cs-124" value="1" style="ellipse;whiteSpace=wrap;html=1;aspect=fixed;" vertex="1" parent="1">
          <mxGeometry x="85" y="1420" width="50" height="50" as="geometry" />
        </mxCell>
        <mxCell id="v6izI4tqeKeCpCRLi0Cs-125" value="ดึงข้อมูลนักลงทุนสัมพันธ์" style="rounded=1;whiteSpace=wrap;html=1;" vertex="1" parent="1">
          <mxGeometry x="372" y="720" width="120" height="40" as="geometry" />
        </mxCell>
        <mxCell id="v6izI4tqeKeCpCRLi0Cs-126" value="" style="edgeStyle=orthogonalEdgeStyle;rounded=0;orthogonalLoop=1;jettySize=auto;html=1;" edge="1" parent="1" source="v6izI4tqeKeCpCRLi0Cs-128">
          <mxGeometry relative="1" as="geometry">
            <mxPoint x="467.7931034482758" y="860" as="targetPoint" />
          </mxGeometry>
        </mxCell>
        <mxCell id="v6izI4tqeKeCpCRLi0Cs-127" value="ใช่" style="edgeLabel;html=1;align=center;verticalAlign=middle;resizable=0;points=[];" vertex="1" connectable="0" parent="v6izI4tqeKeCpCRLi0Cs-126">
          <mxGeometry x="-0.3989" y="-1" relative="1" as="geometry">
            <mxPoint y="2" as="offset" />
          </mxGeometry>
        </mxCell>
        <mxCell id="v6izI4tqeKeCpCRLi0Cs-128" value="มี?" style="rhombus;whiteSpace=wrap;html=1;" vertex="1" parent="1">
          <mxGeometry x="407.75" y="790" width="48.5" height="40" as="geometry" />
        </mxCell>
        <mxCell id="v6izI4tqeKeCpCRLi0Cs-129" value="" style="edgeStyle=orthogonalEdgeStyle;rounded=0;orthogonalLoop=1;jettySize=auto;html=1;" edge="1" parent="1" source="v6izI4tqeKeCpCRLi0Cs-125" target="v6izI4tqeKeCpCRLi0Cs-128">
          <mxGeometry relative="1" as="geometry" />
        </mxCell>
        <mxCell id="v6izI4tqeKeCpCRLi0Cs-130" style="edgeStyle=orthogonalEdgeStyle;rounded=0;orthogonalLoop=1;jettySize=auto;html=1;" edge="1" parent="1" source="v6izI4tqeKeCpCRLi0Cs-131" target="v6izI4tqeKeCpCRLi0Cs-19">
          <mxGeometry relative="1" as="geometry" />
        </mxCell>
        <mxCell id="v6izI4tqeKeCpCRLi0Cs-131" value="return Error code 050" style="rounded=1;whiteSpace=wrap;html=1;" vertex="1" parent="1">
          <mxGeometry x="230" y="770" width="80" height="50" as="geometry" />
        </mxCell>
        <mxCell id="v6izI4tqeKeCpCRLi0Cs-132" style="edgeStyle=orthogonalEdgeStyle;rounded=0;orthogonalLoop=1;jettySize=auto;html=1;" edge="1" parent="1" source="v6izI4tqeKeCpCRLi0Cs-128" target="v6izI4tqeKeCpCRLi0Cs-131">
          <mxGeometry relative="1" as="geometry" />
        </mxCell>
      </root>
    </mxGraphModel>
  </diagram>
</mxfile>
